<?xml version="1.0" encoding="utf-8" standalone="no"?>
<!DOCTYPE svg PUBLIC "-//W3C//DTD SVG 1.1//EN"
  "http://www.w3.org/Graphics/SVG/1.1/DTD/svg11.dtd">
<!-- Created with matplotlib (http://matplotlib.org/) -->
<svg height="4183.80709pt" version="1.1" viewBox="0 0 7192.8 4183.80709" width="7192.8pt" xmlns="http://www.w3.org/2000/svg" xmlns:xlink="http://www.w3.org/1999/xlink">
 <defs>
  <style type="text/css">
*{stroke-linecap:butt;stroke-linejoin:round;}
  </style>
 </defs>
 <g id="figure_1">
  <g id="patch_1">
   <path d="M 0 4183.80709 
L 7192.8 4183.80709 
L 7192.8 0 
L 0 0 
z
" style="fill:#ffffff;"/>
  </g>
  <g id="axes_1">
   <g id="patch_2">
    <path d="M 10.7 4173.10709 
L 7182.1 4173.10709 
L 7182.1 20.798437 
L 10.7 20.798437 
z
" style="fill:#ffffff;"/>
   </g>
   <g id="matplotlib.axis_1"/>
   <g id="matplotlib.axis_2"/>
   <g id="patch_3">
    <path clip-path="url(#p53410efd44)" d="M 4975.162956 1865.425778 
Q 4653.358956 1584.668779 4329.870013 1302.441757 
" style="fill:none;stroke:#000000;stroke-linecap:round;stroke-width:2;"/>
    <path clip-path="url(#p53410efd44)" d="M 4970.914736 1855.083988 
L 4975.162956 1865.425778 
L 4964.340592 1862.61928 
L 4970.914736 1855.083988 
z
" style="stroke:#000000;stroke-linecap:round;stroke-width:2;"/>
   </g>
   <g id="patch_4">
    <path clip-path="url(#p53410efd44)" d="M 4322.913819 1289.272776 
Q 4266.774299 818.73414 4210.899684 350.415826 
" style="fill:none;stroke:#000000;stroke-linecap:round;stroke-width:2;"/>
    <path clip-path="url(#p53410efd44)" d="M 4207.119584 360.937748 
L 4210.899684 350.415826 
L 4217.049161 359.753059 
L 4207.119584 360.937748 
z
" style="stroke:#000000;stroke-linecap:round;stroke-width:2;"/>
   </g>
   <g id="patch_5">
    <path clip-path="url(#p53410efd44)" d="M 2003.142841 1312.038337 
Q 1423.203922 1154.097918 841.107514 995.569928 
" style="fill:none;stroke:#000000;stroke-linecap:round;stroke-width:2;"/>
    <path clip-path="url(#p53410efd44)" d="M 1994.808101 1304.58635 
L 2003.142841 1312.038337 
L 1992.180407 1314.234937 
L 1994.808101 1304.58635 
z
" style="stroke:#000000;stroke-linecap:round;stroke-width:2;"/>
   </g>
   <g id="patch_6">
    <path clip-path="url(#p53410efd44)" d="M 4973.66491 1876.592471 
Q 4607.107294 2054.12259 4238.537212 2232.62738 
" style="fill:none;stroke:#000000;stroke-linecap:round;stroke-width:2;"/>
    <path clip-path="url(#p53410efd44)" d="M 4962.485461 1876.451325 
L 4973.66491 1876.592471 
L 4966.844324 1885.451342 
L 4962.485461 1876.451325 
z
" style="stroke:#000000;stroke-linecap:round;stroke-width:2;"/>
   </g>
   <g id="patch_7">
    <path clip-path="url(#p53410efd44)" d="M 3468.938763 3196.745063 
Q 2910.389362 3069.241169 2354.019951 2942.234916 
" style="fill:none;stroke:#000000;stroke-linecap:round;stroke-width:2;"/>
    <path clip-path="url(#p53410efd44)" d="M 2362.6564 2949.335039 
L 2354.019951 2942.234916 
L 2364.881919 2939.58583 
L 2362.6564 2949.335039 
z
" style="stroke:#000000;stroke-linecap:round;stroke-width:2;"/>
   </g>
   <g id="patch_8">
    <path clip-path="url(#p53410efd44)" d="M 3481.645913 3192.2398 
Q 3854.040233 2717.311025 4225.054813 2244.141884 
" style="fill:none;stroke:#000000;stroke-linecap:round;stroke-width:2;"/>
    <path clip-path="url(#p53410efd44)" d="M 4214.949763 2248.926021 
L 4225.054813 2244.141884 
L 4222.819092 2255.096406 
L 4214.949763 2248.926021 
z
" style="stroke:#000000;stroke-linecap:round;stroke-width:2;"/>
   </g>
   <g id="patch_9">
    <path clip-path="url(#p53410efd44)" d="M 1136.038319 3796.898492 
Q 721.496361 3439.588376 305.260674 3080.818368 
" style="fill:none;stroke:#000000;stroke-linecap:round;stroke-width:2;"/>
    <path clip-path="url(#p53410efd44)" d="M 1131.728152 3786.582366 
L 1136.038319 3796.898492 
L 1125.199318 3794.15695 
L 1131.728152 3786.582366 
z
" style="stroke:#000000;stroke-linecap:round;stroke-width:2;"/>
   </g>
   <g id="patch_10">
    <path clip-path="url(#p53410efd44)" d="M 2902.706257 2920.311569 
Q 2607.74404 3391.14816 2311.594715 3863.879685 
" style="fill:none;stroke:#000000;stroke-linecap:round;stroke-width:2;"/>
    <path clip-path="url(#p53410efd44)" d="M 2893.160148 2926.131516 
L 2902.706257 2920.311569 
L 2901.63455 2931.440425 
L 2893.160148 2926.131516 
z
" style="stroke:#000000;stroke-linecap:round;stroke-width:2;"/>
   </g>
   <g id="patch_11">
    <path clip-path="url(#p53410efd44)" d="M 1407.725441 2279.754474 
Q 984.188256 2445.960435 562.732603 2611.349555 
" style="fill:none;stroke:#000000;stroke-linecap:round;stroke-width:2;"/>
    <path clip-path="url(#p53410efd44)" d="M 573.868004 2612.350972 
L 562.732603 2611.349555 
L 570.214977 2603.042084 
L 573.868004 2612.350972 
z
" style="stroke:#000000;stroke-linecap:round;stroke-width:2;"/>
   </g>
   <g id="patch_12">
    <path clip-path="url(#p53410efd44)" d="M 303.072851 3068.621811 
Q 426.220947 2845.344829 548.289113 2624.025844 
" style="fill:none;stroke:#000000;stroke-linecap:round;stroke-width:2;"/>
    <path clip-path="url(#p53410efd44)" d="M 539.081305 2630.367473 
L 548.289113 2624.025844 
L 547.837732 2635.197068 
L 539.081305 2630.367473 
z
" style="stroke:#000000;stroke-linecap:round;stroke-width:2;"/>
   </g>
   <g id="patch_13">
    <path clip-path="url(#p53410efd44)" d="M 2085.759039 264.600885 
Q 2680.37779 265.552776 3272.760476 266.501088 
" style="fill:none;stroke:#000000;stroke-linecap:round;stroke-width:2;"/>
    <path clip-path="url(#p53410efd44)" d="M 3262.768493 261.485086 
L 3272.760476 266.501088 
L 3262.752484 271.485073 
L 3262.768493 261.485086 
z
" style="stroke:#000000;stroke-linecap:round;stroke-width:2;"/>
   </g>
   <g id="patch_14">
    <path clip-path="url(#p53410efd44)" d="M 4314.406298 1301.060459 
Q 3750.907327 1531.316981 3185.338428 1762.419316 
" style="fill:none;stroke:#000000;stroke-linecap:round;stroke-width:2;"/>
    <path clip-path="url(#p53410efd44)" d="M 4303.258005 1300.214548 
L 4314.406298 1301.060459 
L 4307.040593 1309.471547 
L 4303.258005 1300.214548 
z
" style="stroke:#000000;stroke-linecap:round;stroke-width:2;"/>
   </g>
   <g id="patch_15">
    <path clip-path="url(#p53410efd44)" d="M 2069.92474 263.214173 
Q 1608.996389 182.619765 1150.270689 102.410496 
" style="fill:none;stroke:#000000;stroke-linecap:round;stroke-width:2;"/>
    <path clip-path="url(#p53410efd44)" d="M 1159.260045 109.058164 
L 1150.270689 102.410496 
L 1160.982437 99.207613 
L 1159.260045 109.058164 
z
" style="stroke:#000000;stroke-linecap:round;stroke-width:2;"/>
   </g>
   <g id="patch_16">
    <path clip-path="url(#p53410efd44)" d="M 1415.712194 2268.878497 
Q 1455.891793 1696.798823 1495.91473 1126.949723 
" style="fill:none;stroke:#000000;stroke-linecap:round;stroke-width:2;"/>
    <path clip-path="url(#p53410efd44)" d="M 1490.2264 1136.574841 
L 1495.91473 1126.949723 
L 1500.201826 1137.275458 
L 1490.2264 1136.574841 
z
" style="stroke:#000000;stroke-linecap:round;stroke-width:2;"/>
   </g>
   <g id="patch_17">
    <path clip-path="url(#p53410efd44)" d="M 3290.925636 267.150191 
Q 3746.331273 303.394138 4199.50789 339.460687 
" style="fill:none;stroke:#000000;stroke-linecap:round;stroke-width:2;"/>
    <path clip-path="url(#p53410efd44)" d="M 4189.936086 333.683095 
L 4199.50789 339.460687 
L 4189.142734 343.651575 
L 4189.936086 333.683095 
z
" style="stroke:#000000;stroke-linecap:round;stroke-width:2;"/>
   </g>
   <g id="patch_18">
    <path clip-path="url(#p53410efd44)" d="M 154.661174 1917.212214 
Q 491.008994 1459.457852 828.680835 999.901555 
" style="fill:none;stroke:#000000;stroke-linecap:round;stroke-width:2;"/>
    <path clip-path="url(#p53410efd44)" d="M 164.611626 1912.114322 
L 154.661174 1917.212214 
L 156.553131 1906.193117 
L 164.611626 1912.114322 
z
" style="stroke:#000000;stroke-linecap:round;stroke-width:2;"/>
   </g>
   <g id="patch_19">
    <path clip-path="url(#p53410efd44)" d="M 2910.472229 2901.7061 
Q 3043.040862 2338.54502 3176.121862 1773.207365 
" style="fill:none;stroke:#000000;stroke-linecap:round;stroke-width:2;"/>
    <path clip-path="url(#p53410efd44)" d="M 2917.630578 2893.117849 
L 2910.472229 2901.7061 
L 2907.896638 2890.826471 
L 2917.630578 2893.117849 
z
" style="stroke:#000000;stroke-linecap:round;stroke-width:2;"/>
   </g>
   <g id="patch_20">
    <path clip-path="url(#p53410efd44)" d="M 835.997295 985.928273 
Q 986.804447 547.063272 1136.884926 110.312968 
" style="fill:none;stroke:#000000;stroke-linecap:round;stroke-width:2;"/>
    <path clip-path="url(#p53410efd44)" d="M 1128.906536 118.145292 
L 1136.884926 110.312968 
L 1138.363751 121.395074 
L 1128.906536 118.145292 
z
" style="stroke:#000000;stroke-linecap:round;stroke-width:2;"/>
   </g>
   <g id="patch_21">
    <path clip-path="url(#p53410efd44)" d="M 149.937718 1935.573356 
Q 223.915096 2500.528945 298.182795 3067.701675 
" style="fill:none;stroke:#000000;stroke-linecap:round;stroke-width:2;"/>
    <path clip-path="url(#p53410efd44)" d="M 146.278393 1946.137889 
L 149.937718 1935.573356 
L 156.193749 1944.839535 
L 146.278393 1946.137889 
z
" style="stroke:#000000;stroke-linecap:round;stroke-width:2;"/>
   </g>
   <g id="patch_22">
    <path clip-path="url(#p53410efd44)" d="M 2073.288777 271.177441 
Q 1787.206665 690.673645 1502.384399 1108.322476 
" style="fill:none;stroke:#000000;stroke-linecap:round;stroke-width:2;"/>
    <path clip-path="url(#p53410efd44)" d="M 1512.149453 1102.877872 
L 1502.384399 1108.322476 
L 1503.887748 1097.24367 
L 1512.149453 1102.877872 
z
" style="stroke:#000000;stroke-linecap:round;stroke-width:2;"/>
   </g>
   <g id="patch_23">
    <path clip-path="url(#p53410efd44)" d="M 3287.89106 272.803036 
Q 3601.168504 673.364289 3913.068401 1072.16419 
" style="fill:none;stroke:#000000;stroke-linecap:round;stroke-width:2;"/>
    <path clip-path="url(#p53410efd44)" d="M 3910.846327 1061.206892 
L 3913.068401 1072.16419 
L 3902.969318 1067.36747 
L 3910.846327 1061.206892 
z
" style="stroke:#000000;stroke-linecap:round;stroke-width:2;"/>
   </g>
   <g id="patch_24">
    <path clip-path="url(#p53410efd44)" d="M 3133.522447 4090.627096 
Q 2725.378068 3981.947965 2315.072912 3872.69347 
" style="fill:none;stroke:#000000;stroke-linecap:round;stroke-width:2;"/>
    <path clip-path="url(#p53410efd44)" d="M 3125.14571 4083.222348 
L 3133.522447 4090.627096 
L 3122.572607 4092.885636 
L 3125.14571 4083.222348 
z
" style="stroke:#000000;stroke-linecap:round;stroke-width:2;"/>
   </g>
   <g id="patch_25">
    <path clip-path="url(#p53410efd44)" d="M 1153.972658 3804.153091 
Q 1725.567131 3837.102439 2299.393965 3870.180471 
" style="fill:none;stroke:#000000;stroke-linecap:round;stroke-width:2;"/>
    <path clip-path="url(#p53410efd44)" d="M 1163.668339 3809.720295 
L 1153.972658 3804.153091 
L 1164.24383 3799.736868 
L 1163.668339 3809.720295 
z
" style="stroke:#000000;stroke-linecap:round;stroke-width:2;"/>
   </g>
   <g id="patch_26">
    <path clip-path="url(#p53410efd44)" d="M 3473.93448 3205.999625 
Q 3310.055697 3645.88901 3146.957539 4083.683014 
" style="fill:none;stroke:#000000;stroke-linecap:round;stroke-width:2;"/>
    <path clip-path="url(#p53410efd44)" d="M 3155.134016 4076.057712 
L 3146.957539 4083.683014 
L 3145.763184 4072.566651 
L 3155.134016 4076.057712 
z
" style="stroke:#000000;stroke-linecap:round;stroke-width:2;"/>
   </g>
   <g id="patch_27">
    <path clip-path="url(#p53410efd44)" d="M 2022.528501 1318.409435 
Q 2595.476826 1540.081034 3170.510577 1762.559476 
" style="fill:none;stroke:#000000;stroke-linecap:round;stroke-width:2;"/>
    <path clip-path="url(#p53410efd44)" d="M 2030.050654 1326.680905 
L 2022.528501 1318.409435 
L 2033.658969 1317.354595 
L 2030.050654 1326.680905 
z
" style="stroke:#000000;stroke-linecap:round;stroke-width:2;"/>
   </g>
   <g id="patch_28">
    <path clip-path="url(#p53410efd44)" d="M 4229.277259 2228.401943 
Q 4075.35963 1658.159111 3922.024699 1090.07509 
" style="fill:none;stroke:#000000;stroke-linecap:round;stroke-width:2;"/>
    <path clip-path="url(#p53410efd44)" d="M 3919.803354 1101.032536 
L 3922.024699 1090.07509 
L 3929.457849 1098.426634 
L 3919.803354 1101.032536 
z
" style="stroke:#000000;stroke-linecap:round;stroke-width:2;"/>
   </g>
   <g id="patch_29">
    <path clip-path="url(#p53410efd44)" d="M 1421.648279 2281.47648 
Q 1879.608243 2608.401667 2335.748288 2934.027663 
" style="fill:none;stroke:#000000;stroke-linecap:round;stroke-width:2;"/>
    <path clip-path="url(#p53410efd44)" d="M 2330.514443 2924.148045 
L 2335.748288 2934.027663 
L 2324.704286 2932.286968 
L 2330.514443 2924.148045 
z
" style="stroke:#000000;stroke-linecap:round;stroke-width:2;"/>
   </g>
   <g id="text_1">
    <g id="patch_30">
     <path d="M 4615.984748 1599.106758 
L 4690.733186 1599.106758 
L 4690.733186 1570.23082 
L 4615.984748 1570.23082 
z
" style="fill:#ffffff;stroke:#ffffff;stroke-linejoin:miter;"/>
    </g>
    <!-- [d, c, e]-&gt;{f} -->
    <defs>
     <path d="M 8.59375 75.984375 
L 29.296875 75.984375 
L 29.296875 69 
L 17.578125 69 
L 17.578125 -6.203125 
L 29.296875 -6.203125 
L 29.296875 -13.1875 
L 8.59375 -13.1875 
z
" id="DejaVuSans-5b"/>
     <path d="M 45.40625 46.390625 
L 45.40625 75.984375 
L 54.390625 75.984375 
L 54.390625 0 
L 45.40625 0 
L 45.40625 8.203125 
Q 42.578125 3.328125 38.25 0.953125 
Q 33.9375 -1.421875 27.875 -1.421875 
Q 17.96875 -1.421875 11.734375 6.484375 
Q 5.515625 14.40625 5.515625 27.296875 
Q 5.515625 40.1875 11.734375 48.09375 
Q 17.96875 56 27.875 56 
Q 33.9375 56 38.25 53.625 
Q 42.578125 51.265625 45.40625 46.390625 
z
M 14.796875 27.296875 
Q 14.796875 17.390625 18.875 11.75 
Q 22.953125 6.109375 30.078125 6.109375 
Q 37.203125 6.109375 41.296875 11.75 
Q 45.40625 17.390625 45.40625 27.296875 
Q 45.40625 37.203125 41.296875 42.84375 
Q 37.203125 48.484375 30.078125 48.484375 
Q 22.953125 48.484375 18.875 42.84375 
Q 14.796875 37.203125 14.796875 27.296875 
z
" id="DejaVuSans-64"/>
     <path d="M 11.71875 12.40625 
L 22.015625 12.40625 
L 22.015625 4 
L 14.015625 -11.625 
L 7.71875 -11.625 
L 11.71875 4 
z
" id="DejaVuSans-2c"/>
     <path id="DejaVuSans-20"/>
     <path d="M 48.78125 52.59375 
L 48.78125 44.1875 
Q 44.96875 46.296875 41.140625 47.34375 
Q 37.3125 48.390625 33.40625 48.390625 
Q 24.65625 48.390625 19.8125 42.84375 
Q 14.984375 37.3125 14.984375 27.296875 
Q 14.984375 17.28125 19.8125 11.734375 
Q 24.65625 6.203125 33.40625 6.203125 
Q 37.3125 6.203125 41.140625 7.25 
Q 44.96875 8.296875 48.78125 10.40625 
L 48.78125 2.09375 
Q 45.015625 0.34375 40.984375 -0.53125 
Q 36.96875 -1.421875 32.421875 -1.421875 
Q 20.0625 -1.421875 12.78125 6.34375 
Q 5.515625 14.109375 5.515625 27.296875 
Q 5.515625 40.671875 12.859375 48.328125 
Q 20.21875 56 33.015625 56 
Q 37.15625 56 41.109375 55.140625 
Q 45.0625 54.296875 48.78125 52.59375 
z
" id="DejaVuSans-63"/>
     <path d="M 56.203125 29.59375 
L 56.203125 25.203125 
L 14.890625 25.203125 
Q 15.484375 15.921875 20.484375 11.0625 
Q 25.484375 6.203125 34.421875 6.203125 
Q 39.59375 6.203125 44.453125 7.46875 
Q 49.3125 8.734375 54.109375 11.28125 
L 54.109375 2.78125 
Q 49.265625 0.734375 44.1875 -0.34375 
Q 39.109375 -1.421875 33.890625 -1.421875 
Q 20.796875 -1.421875 13.15625 6.1875 
Q 5.515625 13.8125 5.515625 26.8125 
Q 5.515625 40.234375 12.765625 48.109375 
Q 20.015625 56 32.328125 56 
Q 43.359375 56 49.78125 48.890625 
Q 56.203125 41.796875 56.203125 29.59375 
z
M 47.21875 32.234375 
Q 47.125 39.59375 43.09375 43.984375 
Q 39.0625 48.390625 32.421875 48.390625 
Q 24.90625 48.390625 20.390625 44.140625 
Q 15.875 39.890625 15.1875 32.171875 
z
" id="DejaVuSans-65"/>
     <path d="M 30.421875 75.984375 
L 30.421875 -13.1875 
L 9.71875 -13.1875 
L 9.71875 -6.203125 
L 21.390625 -6.203125 
L 21.390625 69 
L 9.71875 69 
L 9.71875 75.984375 
z
" id="DejaVuSans-5d"/>
     <path d="M 4.890625 31.390625 
L 31.203125 31.390625 
L 31.203125 23.390625 
L 4.890625 23.390625 
z
" id="DejaVuSans-2d"/>
     <path d="M 10.59375 49.21875 
L 10.59375 58.109375 
L 73.1875 35.40625 
L 73.1875 27.296875 
L 10.59375 4.59375 
L 10.59375 13.484375 
L 60.890625 31.296875 
z
" id="DejaVuSans-3e"/>
     <path d="M 51.125 -9.28125 
L 51.125 -16.3125 
L 48.09375 -16.3125 
Q 35.9375 -16.3125 31.8125 -12.6875 
Q 27.6875 -9.078125 27.6875 1.703125 
L 27.6875 13.375 
Q 27.6875 20.75 25.046875 23.578125 
Q 22.40625 26.421875 15.484375 26.421875 
L 12.5 26.421875 
L 12.5 33.40625 
L 15.484375 33.40625 
Q 22.46875 33.40625 25.078125 36.203125 
Q 27.6875 39.015625 27.6875 46.296875 
L 27.6875 58.015625 
Q 27.6875 68.796875 31.8125 72.390625 
Q 35.9375 75.984375 48.09375 75.984375 
L 51.125 75.984375 
L 51.125 69 
L 47.796875 69 
Q 40.921875 69 38.8125 66.84375 
Q 36.71875 64.703125 36.71875 57.8125 
L 36.71875 45.703125 
Q 36.71875 38.03125 34.5 34.5625 
Q 32.28125 31.109375 26.90625 29.890625 
Q 32.328125 28.5625 34.515625 25.09375 
Q 36.71875 21.625 36.71875 14.015625 
L 36.71875 1.90625 
Q 36.71875 -4.984375 38.8125 -7.125 
Q 40.921875 -9.28125 47.796875 -9.28125 
z
" id="DejaVuSans-7b"/>
     <path d="M 37.109375 75.984375 
L 37.109375 68.5 
L 28.515625 68.5 
Q 23.6875 68.5 21.796875 66.546875 
Q 19.921875 64.59375 19.921875 59.515625 
L 19.921875 54.6875 
L 34.71875 54.6875 
L 34.71875 47.703125 
L 19.921875 47.703125 
L 19.921875 0 
L 10.890625 0 
L 10.890625 47.703125 
L 2.296875 47.703125 
L 2.296875 54.6875 
L 10.890625 54.6875 
L 10.890625 58.5 
Q 10.890625 67.625 15.140625 71.796875 
Q 19.390625 75.984375 28.609375 75.984375 
z
" id="DejaVuSans-66"/>
     <path d="M 12.5 -9.28125 
L 15.921875 -9.28125 
Q 22.75 -9.28125 24.828125 -7.171875 
Q 26.90625 -5.078125 26.90625 1.90625 
L 26.90625 14.015625 
Q 26.90625 21.625 29.09375 25.09375 
Q 31.296875 28.5625 36.71875 29.890625 
Q 31.296875 31.109375 29.09375 34.5625 
Q 26.90625 38.03125 26.90625 45.703125 
L 26.90625 57.8125 
Q 26.90625 64.75 24.828125 66.875 
Q 22.75 69 15.921875 69 
L 12.5 69 
L 12.5 75.984375 
L 15.578125 75.984375 
Q 27.734375 75.984375 31.8125 72.390625 
Q 35.890625 68.796875 35.890625 58.015625 
L 35.890625 46.296875 
Q 35.890625 39.015625 38.515625 36.203125 
Q 41.15625 33.40625 48.09375 33.40625 
L 51.125 33.40625 
L 51.125 26.421875 
L 48.09375 26.421875 
Q 41.15625 26.421875 38.515625 23.578125 
Q 35.890625 20.75 35.890625 13.375 
L 35.890625 1.703125 
Q 35.890625 -9.078125 31.8125 -12.6875 
Q 27.734375 -16.3125 15.578125 -16.3125 
L 12.5 -16.3125 
z
" id="DejaVuSans-7d"/>
    </defs>
    <g style="fill:#0000ff;" transform="translate(4619.984748 1581.829258)scale(0.1 -0.1)">
     <use xlink:href="#DejaVuSans-5b"/>
     <use x="39.013672" xlink:href="#DejaVuSans-64"/>
     <use x="102.490234" xlink:href="#DejaVuSans-2c"/>
     <use x="134.277344" xlink:href="#DejaVuSans-20"/>
     <use x="166.064453" xlink:href="#DejaVuSans-63"/>
     <use x="221.044922" xlink:href="#DejaVuSans-2c"/>
     <use x="252.832031" xlink:href="#DejaVuSans-20"/>
     <use x="284.619141" xlink:href="#DejaVuSans-65"/>
     <use x="346.142578" xlink:href="#DejaVuSans-5d"/>
     <use x="385.15625" xlink:href="#DejaVuSans-2d"/>
     <use x="421.240234" xlink:href="#DejaVuSans-3e"/>
     <use x="505.029297" xlink:href="#DejaVuSans-7b"/>
     <use x="568.652344" xlink:href="#DejaVuSans-66"/>
     <use x="603.857422" xlink:href="#DejaVuSans-7d"/>
    </g>
    <!-- c*d == e*f) -->
    <defs>
     <path d="M 47.015625 60.890625 
L 29.5 51.421875 
L 47.015625 41.890625 
L 44.1875 37.109375 
L 27.78125 47.015625 
L 27.78125 28.609375 
L 22.21875 28.609375 
L 22.21875 47.015625 
L 5.8125 37.109375 
L 2.984375 41.890625 
L 20.515625 51.421875 
L 2.984375 60.890625 
L 5.8125 65.71875 
L 22.21875 55.8125 
L 22.21875 74.21875 
L 27.78125 74.21875 
L 27.78125 55.8125 
L 44.1875 65.71875 
z
" id="DejaVuSans-2a"/>
     <path d="M 10.59375 45.40625 
L 73.1875 45.40625 
L 73.1875 37.203125 
L 10.59375 37.203125 
z
M 10.59375 25.484375 
L 73.1875 25.484375 
L 73.1875 17.1875 
L 10.59375 17.1875 
z
" id="DejaVuSans-3d"/>
     <path d="M 8.015625 75.875 
L 15.828125 75.875 
Q 23.140625 64.359375 26.78125 53.3125 
Q 30.421875 42.28125 30.421875 31.390625 
Q 30.421875 20.453125 26.78125 9.375 
Q 23.140625 -1.703125 15.828125 -13.1875 
L 8.015625 -13.1875 
Q 14.5 -2 17.703125 9.0625 
Q 20.90625 20.125 20.90625 31.390625 
Q 20.90625 42.671875 17.703125 53.65625 
Q 14.5 64.65625 8.015625 75.875 
z
" id="DejaVuSans-29"/>
    </defs>
    <g style="fill:#0000ff;" transform="translate(4624.090217 1593.02707)scale(0.1 -0.1)">
     <use xlink:href="#DejaVuSans-63"/>
     <use x="54.980469" xlink:href="#DejaVuSans-2a"/>
     <use x="104.980469" xlink:href="#DejaVuSans-64"/>
     <use x="168.457031" xlink:href="#DejaVuSans-20"/>
     <use x="200.244141" xlink:href="#DejaVuSans-3d"/>
     <use x="284.033203" xlink:href="#DejaVuSans-3d"/>
     <use x="367.822266" xlink:href="#DejaVuSans-20"/>
     <use x="399.609375" xlink:href="#DejaVuSans-65"/>
     <use x="461.132812" xlink:href="#DejaVuSans-2a"/>
     <use x="511.132812" xlink:href="#DejaVuSans-66"/>
     <use x="546.337891" xlink:href="#DejaVuSans-29"/>
    </g>
   </g>
   <g id="text_2">
    <g id="patch_31">
     <path d="M 4228.096202 833.172344 
L 4305.452452 833.172344 
L 4305.452452 804.296406 
L 4228.096202 804.296406 
z
" style="fill:#ffffff;stroke:#ffffff;stroke-linejoin:miter;"/>
    </g>
    <!-- [d, c, e]-&gt;{a} -->
    <defs>
     <path d="M 34.28125 27.484375 
Q 23.390625 27.484375 19.1875 25 
Q 14.984375 22.515625 14.984375 16.5 
Q 14.984375 11.71875 18.140625 8.90625 
Q 21.296875 6.109375 26.703125 6.109375 
Q 34.1875 6.109375 38.703125 11.40625 
Q 43.21875 16.703125 43.21875 25.484375 
L 43.21875 27.484375 
z
M 52.203125 31.203125 
L 52.203125 0 
L 43.21875 0 
L 43.21875 8.296875 
Q 40.140625 3.328125 35.546875 0.953125 
Q 30.953125 -1.421875 24.3125 -1.421875 
Q 15.921875 -1.421875 10.953125 3.296875 
Q 6 8.015625 6 15.921875 
Q 6 25.140625 12.171875 29.828125 
Q 18.359375 34.515625 30.609375 34.515625 
L 43.21875 34.515625 
L 43.21875 35.40625 
Q 43.21875 41.609375 39.140625 45 
Q 35.0625 48.390625 27.6875 48.390625 
Q 23 48.390625 18.546875 47.265625 
Q 14.109375 46.140625 10.015625 43.890625 
L 10.015625 52.203125 
Q 14.9375 54.109375 19.578125 55.046875 
Q 24.21875 56 28.609375 56 
Q 40.484375 56 46.34375 49.84375 
Q 52.203125 43.703125 52.203125 31.203125 
z
" id="DejaVuSans-61"/>
    </defs>
    <g style="fill:#0000ff;" transform="translate(4232.096202 815.894844)scale(0.1 -0.1)">
     <use xlink:href="#DejaVuSans-5b"/>
     <use x="39.013672" xlink:href="#DejaVuSans-64"/>
     <use x="102.490234" xlink:href="#DejaVuSans-2c"/>
     <use x="134.277344" xlink:href="#DejaVuSans-20"/>
     <use x="166.064453" xlink:href="#DejaVuSans-63"/>
     <use x="221.044922" xlink:href="#DejaVuSans-2c"/>
     <use x="252.832031" xlink:href="#DejaVuSans-20"/>
     <use x="284.619141" xlink:href="#DejaVuSans-65"/>
     <use x="346.142578" xlink:href="#DejaVuSans-5d"/>
     <use x="385.15625" xlink:href="#DejaVuSans-2d"/>
     <use x="421.240234" xlink:href="#DejaVuSans-3e"/>
     <use x="505.029297" xlink:href="#DejaVuSans-7b"/>
     <use x="568.652344" xlink:href="#DejaVuSans-61"/>
     <use x="629.931641" xlink:href="#DejaVuSans-7d"/>
    </g>
    <!-- a*c == d*e) -->
    <g style="fill:#0000ff;" transform="translate(4236.201671 827.092656)scale(0.1 -0.1)">
     <use xlink:href="#DejaVuSans-61"/>
     <use x="61.279297" xlink:href="#DejaVuSans-2a"/>
     <use x="111.279297" xlink:href="#DejaVuSans-63"/>
     <use x="166.259766" xlink:href="#DejaVuSans-20"/>
     <use x="198.046875" xlink:href="#DejaVuSans-3d"/>
     <use x="281.835938" xlink:href="#DejaVuSans-3d"/>
     <use x="365.625" xlink:href="#DejaVuSans-20"/>
     <use x="397.412109" xlink:href="#DejaVuSans-64"/>
     <use x="460.888672" xlink:href="#DejaVuSans-2a"/>
     <use x="510.888672" xlink:href="#DejaVuSans-65"/>
     <use x="572.412109" xlink:href="#DejaVuSans-29"/>
    </g>
   </g>
   <g id="text_3">
    <g id="patch_32">
     <path d="M 1367.212382 1168.535424 
L 1479.192069 1168.535424 
L 1479.192069 1139.659487 
L 1367.212382 1139.659487 
z
" style="fill:#ffffff;stroke:#ffffff;stroke-linejoin:miter;"/>
    </g>
    <!-- [b, e]-&gt;{c} -->
    <defs>
     <path d="M 48.6875 27.296875 
Q 48.6875 37.203125 44.609375 42.84375 
Q 40.53125 48.484375 33.40625 48.484375 
Q 26.265625 48.484375 22.1875 42.84375 
Q 18.109375 37.203125 18.109375 27.296875 
Q 18.109375 17.390625 22.1875 11.75 
Q 26.265625 6.109375 33.40625 6.109375 
Q 40.53125 6.109375 44.609375 11.75 
Q 48.6875 17.390625 48.6875 27.296875 
z
M 18.109375 46.390625 
Q 20.953125 51.265625 25.265625 53.625 
Q 29.59375 56 35.59375 56 
Q 45.5625 56 51.78125 48.09375 
Q 58.015625 40.1875 58.015625 27.296875 
Q 58.015625 14.40625 51.78125 6.484375 
Q 45.5625 -1.421875 35.59375 -1.421875 
Q 29.59375 -1.421875 25.265625 0.953125 
Q 20.953125 3.328125 18.109375 8.203125 
L 18.109375 0 
L 9.078125 0 
L 9.078125 75.984375 
L 18.109375 75.984375 
z
" id="DejaVuSans-62"/>
    </defs>
    <g style="fill:#0000ff;" transform="translate(1394.766288 1151.257924)scale(0.1 -0.1)">
     <use xlink:href="#DejaVuSans-5b"/>
     <use x="39.013672" xlink:href="#DejaVuSans-62"/>
     <use x="102.490234" xlink:href="#DejaVuSans-2c"/>
     <use x="134.277344" xlink:href="#DejaVuSans-20"/>
     <use x="166.064453" xlink:href="#DejaVuSans-65"/>
     <use x="227.587891" xlink:href="#DejaVuSans-5d"/>
     <use x="266.601562" xlink:href="#DejaVuSans-2d"/>
     <use x="302.685547" xlink:href="#DejaVuSans-3e"/>
     <use x="386.474609" xlink:href="#DejaVuSans-7b"/>
     <use x="450.097656" xlink:href="#DejaVuSans-63"/>
     <use x="505.078125" xlink:href="#DejaVuSans-7d"/>
    </g>
    <!-- b^2 + e^2 == c^2) -->
    <defs>
     <path d="M 46.6875 72.90625 
L 73.1875 45.703125 
L 63.375 45.703125 
L 41.890625 64.984375 
L 20.40625 45.703125 
L 10.59375 45.703125 
L 37.109375 72.90625 
z
" id="DejaVuSans-5e"/>
     <path d="M 19.1875 8.296875 
L 53.609375 8.296875 
L 53.609375 0 
L 7.328125 0 
L 7.328125 8.296875 
Q 12.9375 14.109375 22.625 23.890625 
Q 32.328125 33.6875 34.8125 36.53125 
Q 39.546875 41.84375 41.421875 45.53125 
Q 43.3125 49.21875 43.3125 52.78125 
Q 43.3125 58.59375 39.234375 62.25 
Q 35.15625 65.921875 28.609375 65.921875 
Q 23.96875 65.921875 18.8125 64.3125 
Q 13.671875 62.703125 7.8125 59.421875 
L 7.8125 69.390625 
Q 13.765625 71.78125 18.9375 73 
Q 24.125 74.21875 28.421875 74.21875 
Q 39.75 74.21875 46.484375 68.546875 
Q 53.21875 62.890625 53.21875 53.421875 
Q 53.21875 48.921875 51.53125 44.890625 
Q 49.859375 40.875 45.40625 35.40625 
Q 44.1875 33.984375 37.640625 27.21875 
Q 31.109375 20.453125 19.1875 8.296875 
z
" id="DejaVuSans-32"/>
     <path d="M 46 62.703125 
L 46 35.5 
L 73.1875 35.5 
L 73.1875 27.203125 
L 46 27.203125 
L 46 0 
L 37.796875 0 
L 37.796875 27.203125 
L 10.59375 27.203125 
L 10.59375 35.5 
L 37.796875 35.5 
L 37.796875 62.703125 
z
" id="DejaVuSans-2b"/>
    </defs>
    <g style="fill:#0000ff;" transform="translate(1371.212382 1162.455737)scale(0.1 -0.1)">
     <use xlink:href="#DejaVuSans-62"/>
     <use x="63.476562" xlink:href="#DejaVuSans-5e"/>
     <use x="147.265625" xlink:href="#DejaVuSans-32"/>
     <use x="210.888672" xlink:href="#DejaVuSans-20"/>
     <use x="242.675781" xlink:href="#DejaVuSans-2b"/>
     <use x="326.464844" xlink:href="#DejaVuSans-20"/>
     <use x="358.251953" xlink:href="#DejaVuSans-65"/>
     <use x="419.775391" xlink:href="#DejaVuSans-5e"/>
     <use x="503.564453" xlink:href="#DejaVuSans-32"/>
     <use x="567.1875" xlink:href="#DejaVuSans-20"/>
     <use x="598.974609" xlink:href="#DejaVuSans-3d"/>
     <use x="682.763672" xlink:href="#DejaVuSans-3d"/>
     <use x="766.552734" xlink:href="#DejaVuSans-20"/>
     <use x="798.339844" xlink:href="#DejaVuSans-63"/>
     <use x="853.320312" xlink:href="#DejaVuSans-5e"/>
     <use x="937.109375" xlink:href="#DejaVuSans-32"/>
     <use x="1000.732422" xlink:href="#DejaVuSans-29"/>
    </g>
   </g>
   <g id="text_4">
    <g id="patch_33">
     <path d="M 4572.044251 2068.560443 
L 4642.170814 2068.560443 
L 4642.170814 2039.684506 
L 4572.044251 2039.684506 
z
" style="fill:#ffffff;stroke:#ffffff;stroke-linejoin:miter;"/>
    </g>
    <!-- [f, c]-&gt;{b} -->
    <g style="fill:#0000ff;" transform="translate(4579.988001 2051.282943)scale(0.1 -0.1)">
     <use xlink:href="#DejaVuSans-5b"/>
     <use x="39.013672" xlink:href="#DejaVuSans-66"/>
     <use x="74.21875" xlink:href="#DejaVuSans-2c"/>
     <use x="106.005859" xlink:href="#DejaVuSans-20"/>
     <use x="137.792969" xlink:href="#DejaVuSans-63"/>
     <use x="192.773438" xlink:href="#DejaVuSans-5d"/>
     <use x="231.787109" xlink:href="#DejaVuSans-2d"/>
     <use x="267.871094" xlink:href="#DejaVuSans-3e"/>
     <use x="351.660156" xlink:href="#DejaVuSans-7b"/>
     <use x="415.283203" xlink:href="#DejaVuSans-62"/>
     <use x="478.759766" xlink:href="#DejaVuSans-7d"/>
    </g>
    <!-- c^2 == b*f) -->
    <g style="fill:#0000ff;" transform="translate(4576.044251 2062.480756)scale(0.1 -0.1)">
     <use xlink:href="#DejaVuSans-63"/>
     <use x="54.980469" xlink:href="#DejaVuSans-5e"/>
     <use x="138.769531" xlink:href="#DejaVuSans-32"/>
     <use x="202.392578" xlink:href="#DejaVuSans-20"/>
     <use x="234.179688" xlink:href="#DejaVuSans-3d"/>
     <use x="317.96875" xlink:href="#DejaVuSans-3d"/>
     <use x="401.757812" xlink:href="#DejaVuSans-20"/>
     <use x="433.544922" xlink:href="#DejaVuSans-62"/>
     <use x="497.021484" xlink:href="#DejaVuSans-2a"/>
     <use x="547.021484" xlink:href="#DejaVuSans-66"/>
     <use x="582.226562" xlink:href="#DejaVuSans-29"/>
    </g>
   </g>
   <g id="text_5">
    <g id="patch_34">
     <path d="M 2875.012222 3083.679362 
L 2945.768472 3083.679362 
L 2945.768472 3054.803425 
L 2875.012222 3054.803425 
z
" style="fill:#ffffff;stroke:#ffffff;stroke-linejoin:miter;"/>
    </g>
    <!-- [f, d]-&gt;{a} -->
    <g style="fill:#0000ff;" transform="translate(2882.955972 3066.401862)scale(0.1 -0.1)">
     <use xlink:href="#DejaVuSans-5b"/>
     <use x="39.013672" xlink:href="#DejaVuSans-66"/>
     <use x="74.21875" xlink:href="#DejaVuSans-2c"/>
     <use x="106.005859" xlink:href="#DejaVuSans-20"/>
     <use x="137.792969" xlink:href="#DejaVuSans-64"/>
     <use x="201.269531" xlink:href="#DejaVuSans-5d"/>
     <use x="240.283203" xlink:href="#DejaVuSans-2d"/>
     <use x="276.367188" xlink:href="#DejaVuSans-3e"/>
     <use x="360.15625" xlink:href="#DejaVuSans-7b"/>
     <use x="423.779297" xlink:href="#DejaVuSans-61"/>
     <use x="485.058594" xlink:href="#DejaVuSans-7d"/>
    </g>
    <!-- d^2 == a*f) -->
    <g style="fill:#0000ff;" transform="translate(2879.012222 3077.599675)scale(0.1 -0.1)">
     <use xlink:href="#DejaVuSans-64"/>
     <use x="63.476562" xlink:href="#DejaVuSans-5e"/>
     <use x="147.265625" xlink:href="#DejaVuSans-32"/>
     <use x="210.888672" xlink:href="#DejaVuSans-20"/>
     <use x="242.675781" xlink:href="#DejaVuSans-3d"/>
     <use x="326.464844" xlink:href="#DejaVuSans-3d"/>
     <use x="410.253906" xlink:href="#DejaVuSans-20"/>
     <use x="442.041016" xlink:href="#DejaVuSans-61"/>
     <use x="503.320312" xlink:href="#DejaVuSans-2a"/>
     <use x="553.320312" xlink:href="#DejaVuSans-66"/>
     <use x="588.525391" xlink:href="#DejaVuSans-29"/>
    </g>
   </g>
   <g id="text_6">
    <g id="patch_35">
     <path d="M 3816.66424 2731.751257 
L 3891.412677 2731.751257 
L 3891.412677 2702.875319 
L 3816.66424 2702.875319 
z
" style="fill:#ffffff;stroke:#ffffff;stroke-linejoin:miter;"/>
    </g>
    <!-- [f, d, c]-&gt;{e} -->
    <g style="fill:#0000ff;" transform="translate(3820.66424 2714.473757)scale(0.1 -0.1)">
     <use xlink:href="#DejaVuSans-5b"/>
     <use x="39.013672" xlink:href="#DejaVuSans-66"/>
     <use x="74.21875" xlink:href="#DejaVuSans-2c"/>
     <use x="106.005859" xlink:href="#DejaVuSans-20"/>
     <use x="137.792969" xlink:href="#DejaVuSans-64"/>
     <use x="201.269531" xlink:href="#DejaVuSans-2c"/>
     <use x="233.056641" xlink:href="#DejaVuSans-20"/>
     <use x="264.84375" xlink:href="#DejaVuSans-63"/>
     <use x="319.824219" xlink:href="#DejaVuSans-5d"/>
     <use x="358.837891" xlink:href="#DejaVuSans-2d"/>
     <use x="394.921875" xlink:href="#DejaVuSans-3e"/>
     <use x="478.710938" xlink:href="#DejaVuSans-7b"/>
     <use x="542.333984" xlink:href="#DejaVuSans-65"/>
     <use x="603.857422" xlink:href="#DejaVuSans-7d"/>
    </g>
    <!-- c*d == e*f) -->
    <g style="fill:#0000ff;" transform="translate(3824.769709 2725.671569)scale(0.1 -0.1)">
     <use xlink:href="#DejaVuSans-63"/>
     <use x="54.980469" xlink:href="#DejaVuSans-2a"/>
     <use x="104.980469" xlink:href="#DejaVuSans-64"/>
     <use x="168.457031" xlink:href="#DejaVuSans-20"/>
     <use x="200.244141" xlink:href="#DejaVuSans-3d"/>
     <use x="284.033203" xlink:href="#DejaVuSans-3d"/>
     <use x="367.822266" xlink:href="#DejaVuSans-20"/>
     <use x="399.609375" xlink:href="#DejaVuSans-65"/>
     <use x="461.132812" xlink:href="#DejaVuSans-2a"/>
     <use x="511.132812" xlink:href="#DejaVuSans-66"/>
     <use x="546.337891" xlink:href="#DejaVuSans-29"/>
    </g>
   </g>
   <g id="text_7">
    <g id="patch_36">
     <path d="M 686.432292 3454.025666 
L 756.558855 3454.025666 
L 756.558855 3425.149728 
L 686.432292 3425.149728 
z
" style="fill:#ffffff;stroke:#ffffff;stroke-linejoin:miter;"/>
    </g>
    <!-- [f, b]-&gt;{c} -->
    <g style="fill:#0000ff;" transform="translate(694.376042 3436.748166)scale(0.1 -0.1)">
     <use xlink:href="#DejaVuSans-5b"/>
     <use x="39.013672" xlink:href="#DejaVuSans-66"/>
     <use x="74.21875" xlink:href="#DejaVuSans-2c"/>
     <use x="106.005859" xlink:href="#DejaVuSans-20"/>
     <use x="137.792969" xlink:href="#DejaVuSans-62"/>
     <use x="201.269531" xlink:href="#DejaVuSans-5d"/>
     <use x="240.283203" xlink:href="#DejaVuSans-2d"/>
     <use x="276.367188" xlink:href="#DejaVuSans-3e"/>
     <use x="360.15625" xlink:href="#DejaVuSans-7b"/>
     <use x="423.779297" xlink:href="#DejaVuSans-63"/>
     <use x="478.759766" xlink:href="#DejaVuSans-7d"/>
    </g>
    <!-- c^2 == b*f) -->
    <g style="fill:#0000ff;" transform="translate(690.432292 3447.945978)scale(0.1 -0.1)">
     <use xlink:href="#DejaVuSans-63"/>
     <use x="54.980469" xlink:href="#DejaVuSans-5e"/>
     <use x="138.769531" xlink:href="#DejaVuSans-32"/>
     <use x="202.392578" xlink:href="#DejaVuSans-20"/>
     <use x="234.179688" xlink:href="#DejaVuSans-3d"/>
     <use x="317.96875" xlink:href="#DejaVuSans-3d"/>
     <use x="401.757812" xlink:href="#DejaVuSans-20"/>
     <use x="433.544922" xlink:href="#DejaVuSans-62"/>
     <use x="497.021484" xlink:href="#DejaVuSans-2a"/>
     <use x="547.021484" xlink:href="#DejaVuSans-66"/>
     <use x="582.226562" xlink:href="#DejaVuSans-29"/>
    </g>
   </g>
   <g id="text_8">
    <g id="patch_37">
     <path d="M 2551.755487 3405.584068 
L 2663.735175 3405.584068 
L 2663.735175 3376.708131 
L 2551.755487 3376.708131 
z
" style="fill:#ffffff;stroke:#ffffff;stroke-linejoin:miter;"/>
    </g>
    <!-- [c, b]-&gt;{e} -->
    <g style="fill:#0000ff;" transform="translate(2579.309393 3388.306568)scale(0.1 -0.1)">
     <use xlink:href="#DejaVuSans-5b"/>
     <use x="39.013672" xlink:href="#DejaVuSans-63"/>
     <use x="93.994141" xlink:href="#DejaVuSans-2c"/>
     <use x="125.78125" xlink:href="#DejaVuSans-20"/>
     <use x="157.568359" xlink:href="#DejaVuSans-62"/>
     <use x="221.044922" xlink:href="#DejaVuSans-5d"/>
     <use x="260.058594" xlink:href="#DejaVuSans-2d"/>
     <use x="296.142578" xlink:href="#DejaVuSans-3e"/>
     <use x="379.931641" xlink:href="#DejaVuSans-7b"/>
     <use x="443.554688" xlink:href="#DejaVuSans-65"/>
     <use x="505.078125" xlink:href="#DejaVuSans-7d"/>
    </g>
    <!-- b^2 + e^2 == c^2) -->
    <g style="fill:#0000ff;" transform="translate(2555.755487 3399.504381)scale(0.1 -0.1)">
     <use xlink:href="#DejaVuSans-62"/>
     <use x="63.476562" xlink:href="#DejaVuSans-5e"/>
     <use x="147.265625" xlink:href="#DejaVuSans-32"/>
     <use x="210.888672" xlink:href="#DejaVuSans-20"/>
     <use x="242.675781" xlink:href="#DejaVuSans-2b"/>
     <use x="326.464844" xlink:href="#DejaVuSans-20"/>
     <use x="358.251953" xlink:href="#DejaVuSans-65"/>
     <use x="419.775391" xlink:href="#DejaVuSans-5e"/>
     <use x="503.564453" xlink:href="#DejaVuSans-32"/>
     <use x="567.1875" xlink:href="#DejaVuSans-20"/>
     <use x="598.974609" xlink:href="#DejaVuSans-3d"/>
     <use x="682.763672" xlink:href="#DejaVuSans-3d"/>
     <use x="766.552734" xlink:href="#DejaVuSans-20"/>
     <use x="798.339844" xlink:href="#DejaVuSans-63"/>
     <use x="853.320312" xlink:href="#DejaVuSans-5e"/>
     <use x="937.109375" xlink:href="#DejaVuSans-32"/>
     <use x="1000.732422" xlink:href="#DejaVuSans-29"/>
    </g>
   </g>
   <g id="text_9">
    <g id="patch_38">
     <path d="M 951.312663 2460.398637 
L 1017.062663 2460.398637 
L 1017.062663 2431.522699 
L 951.312663 2431.522699 
z
" style="fill:#ffffff;stroke:#ffffff;stroke-linejoin:miter;"/>
    </g>
    <!-- [f, a]-&gt;{b} -->
    <g style="fill:#0000ff;" transform="translate(956.753288 2443.121137)scale(0.1 -0.1)">
     <use xlink:href="#DejaVuSans-5b"/>
     <use x="39.013672" xlink:href="#DejaVuSans-66"/>
     <use x="74.21875" xlink:href="#DejaVuSans-2c"/>
     <use x="106.005859" xlink:href="#DejaVuSans-20"/>
     <use x="137.792969" xlink:href="#DejaVuSans-61"/>
     <use x="199.072266" xlink:href="#DejaVuSans-5d"/>
     <use x="238.085938" xlink:href="#DejaVuSans-2d"/>
     <use x="274.169922" xlink:href="#DejaVuSans-3e"/>
     <use x="357.958984" xlink:href="#DejaVuSans-7b"/>
     <use x="421.582031" xlink:href="#DejaVuSans-62"/>
     <use x="485.058594" xlink:href="#DejaVuSans-7d"/>
    </g>
    <!-- f == a + b) -->
    <g style="fill:#0000ff;" transform="translate(955.312663 2454.318949)scale(0.1 -0.1)">
     <use xlink:href="#DejaVuSans-66"/>
     <use x="35.205078" xlink:href="#DejaVuSans-20"/>
     <use x="66.992188" xlink:href="#DejaVuSans-3d"/>
     <use x="150.78125" xlink:href="#DejaVuSans-3d"/>
     <use x="234.570312" xlink:href="#DejaVuSans-20"/>
     <use x="266.357422" xlink:href="#DejaVuSans-61"/>
     <use x="327.636719" xlink:href="#DejaVuSans-20"/>
     <use x="359.423828" xlink:href="#DejaVuSans-2b"/>
     <use x="443.212891" xlink:href="#DejaVuSans-20"/>
     <use x="475" xlink:href="#DejaVuSans-62"/>
     <use x="538.476562" xlink:href="#DejaVuSans-29"/>
    </g>
   </g>
   <g id="text_10">
    <g id="patch_39">
     <path d="M 390.842204 2859.783919 
L 461.598454 2859.783919 
L 461.598454 2830.907981 
L 390.842204 2830.907981 
z
" style="fill:#ffffff;stroke:#ffffff;stroke-linejoin:miter;"/>
    </g>
    <!-- [f, a]-&gt;{d} -->
    <g style="fill:#0000ff;" transform="translate(398.785954 2842.506419)scale(0.1 -0.1)">
     <use xlink:href="#DejaVuSans-5b"/>
     <use x="39.013672" xlink:href="#DejaVuSans-66"/>
     <use x="74.21875" xlink:href="#DejaVuSans-2c"/>
     <use x="106.005859" xlink:href="#DejaVuSans-20"/>
     <use x="137.792969" xlink:href="#DejaVuSans-61"/>
     <use x="199.072266" xlink:href="#DejaVuSans-5d"/>
     <use x="238.085938" xlink:href="#DejaVuSans-2d"/>
     <use x="274.169922" xlink:href="#DejaVuSans-3e"/>
     <use x="357.958984" xlink:href="#DejaVuSans-7b"/>
     <use x="421.582031" xlink:href="#DejaVuSans-64"/>
     <use x="485.058594" xlink:href="#DejaVuSans-7d"/>
    </g>
    <!-- d^2 == a*f) -->
    <g style="fill:#0000ff;" transform="translate(394.842204 2853.704231)scale(0.1 -0.1)">
     <use xlink:href="#DejaVuSans-64"/>
     <use x="63.476562" xlink:href="#DejaVuSans-5e"/>
     <use x="147.265625" xlink:href="#DejaVuSans-32"/>
     <use x="210.888672" xlink:href="#DejaVuSans-20"/>
     <use x="242.675781" xlink:href="#DejaVuSans-3d"/>
     <use x="326.464844" xlink:href="#DejaVuSans-3d"/>
     <use x="410.253906" xlink:href="#DejaVuSans-20"/>
     <use x="442.041016" xlink:href="#DejaVuSans-61"/>
     <use x="503.320312" xlink:href="#DejaVuSans-2a"/>
     <use x="553.320312" xlink:href="#DejaVuSans-66"/>
     <use x="588.525391" xlink:href="#DejaVuSans-29"/>
    </g>
   </g>
   <g id="text_11">
    <g id="patch_40">
     <path d="M 2641.700671 279.990747 
L 2719.056921 279.990747 
L 2719.056921 251.114809 
L 2641.700671 251.114809 
z
" style="fill:#ffffff;stroke:#ffffff;stroke-linejoin:miter;"/>
    </g>
    <!-- [d, a, e]-&gt;{c} -->
    <g style="fill:#0000ff;" transform="translate(2645.700671 262.713247)scale(0.1 -0.1)">
     <use xlink:href="#DejaVuSans-5b"/>
     <use x="39.013672" xlink:href="#DejaVuSans-64"/>
     <use x="102.490234" xlink:href="#DejaVuSans-2c"/>
     <use x="134.277344" xlink:href="#DejaVuSans-20"/>
     <use x="166.064453" xlink:href="#DejaVuSans-61"/>
     <use x="227.34375" xlink:href="#DejaVuSans-2c"/>
     <use x="259.130859" xlink:href="#DejaVuSans-20"/>
     <use x="290.917969" xlink:href="#DejaVuSans-65"/>
     <use x="352.441406" xlink:href="#DejaVuSans-5d"/>
     <use x="391.455078" xlink:href="#DejaVuSans-2d"/>
     <use x="427.539062" xlink:href="#DejaVuSans-3e"/>
     <use x="511.328125" xlink:href="#DejaVuSans-7b"/>
     <use x="574.951172" xlink:href="#DejaVuSans-63"/>
     <use x="629.931641" xlink:href="#DejaVuSans-7d"/>
    </g>
    <!-- a*c == d*e) -->
    <g style="fill:#0000ff;" transform="translate(2649.806139 273.911059)scale(0.1 -0.1)">
     <use xlink:href="#DejaVuSans-61"/>
     <use x="61.279297" xlink:href="#DejaVuSans-2a"/>
     <use x="111.279297" xlink:href="#DejaVuSans-63"/>
     <use x="166.259766" xlink:href="#DejaVuSans-20"/>
     <use x="198.046875" xlink:href="#DejaVuSans-3d"/>
     <use x="281.835938" xlink:href="#DejaVuSans-3d"/>
     <use x="365.625" xlink:href="#DejaVuSans-20"/>
     <use x="397.412109" xlink:href="#DejaVuSans-64"/>
     <use x="460.888672" xlink:href="#DejaVuSans-2a"/>
     <use x="510.888672" xlink:href="#DejaVuSans-65"/>
     <use x="572.412109" xlink:href="#DejaVuSans-29"/>
    </g>
   </g>
   <g id="text_12">
    <g id="patch_41">
     <path d="M 3712.116771 1545.755879 
L 3789.693334 1545.755879 
L 3789.693334 1516.879942 
L 3712.116771 1516.879942 
z
" style="fill:#ffffff;stroke:#ffffff;stroke-linejoin:miter;"/>
    </g>
    <!-- [c, b, e]-&gt;{d} -->
    <g style="fill:#0000ff;" transform="translate(3716.116771 1528.478379)scale(0.1 -0.1)">
     <use xlink:href="#DejaVuSans-5b"/>
     <use x="39.013672" xlink:href="#DejaVuSans-63"/>
     <use x="93.994141" xlink:href="#DejaVuSans-2c"/>
     <use x="125.78125" xlink:href="#DejaVuSans-20"/>
     <use x="157.568359" xlink:href="#DejaVuSans-62"/>
     <use x="221.044922" xlink:href="#DejaVuSans-2c"/>
     <use x="252.832031" xlink:href="#DejaVuSans-20"/>
     <use x="284.619141" xlink:href="#DejaVuSans-65"/>
     <use x="346.142578" xlink:href="#DejaVuSans-5d"/>
     <use x="385.15625" xlink:href="#DejaVuSans-2d"/>
     <use x="421.240234" xlink:href="#DejaVuSans-3e"/>
     <use x="505.029297" xlink:href="#DejaVuSans-7b"/>
     <use x="568.652344" xlink:href="#DejaVuSans-64"/>
     <use x="632.128906" xlink:href="#DejaVuSans-7d"/>
    </g>
    <!-- c*e == b*d) -->
    <g style="fill:#0000ff;" transform="translate(3720.22224 1539.676192)scale(0.1 -0.1)">
     <use xlink:href="#DejaVuSans-63"/>
     <use x="54.980469" xlink:href="#DejaVuSans-2a"/>
     <use x="104.980469" xlink:href="#DejaVuSans-65"/>
     <use x="166.503906" xlink:href="#DejaVuSans-20"/>
     <use x="198.291016" xlink:href="#DejaVuSans-3d"/>
     <use x="282.080078" xlink:href="#DejaVuSans-3d"/>
     <use x="365.869141" xlink:href="#DejaVuSans-20"/>
     <use x="397.65625" xlink:href="#DejaVuSans-62"/>
     <use x="461.132812" xlink:href="#DejaVuSans-2a"/>
     <use x="511.132812" xlink:href="#DejaVuSans-64"/>
     <use x="574.609375" xlink:href="#DejaVuSans-29"/>
    </g>
   </g>
   <g id="text_13">
    <g id="patch_42">
     <path d="M 1572.29932 197.05729 
L 1645.688382 197.05729 
L 1645.688382 168.181353 
L 1572.29932 168.181353 
z
" style="fill:#ffffff;stroke:#ffffff;stroke-linejoin:miter;"/>
    </g>
    <!-- [a, e]-&gt;{b} -->
    <g style="fill:#0000ff;" transform="translate(1580.24307 179.77979)scale(0.1 -0.1)">
     <use xlink:href="#DejaVuSans-5b"/>
     <use x="39.013672" xlink:href="#DejaVuSans-61"/>
     <use x="100.292969" xlink:href="#DejaVuSans-2c"/>
     <use x="132.080078" xlink:href="#DejaVuSans-20"/>
     <use x="163.867188" xlink:href="#DejaVuSans-65"/>
     <use x="225.390625" xlink:href="#DejaVuSans-5d"/>
     <use x="264.404297" xlink:href="#DejaVuSans-2d"/>
     <use x="300.488281" xlink:href="#DejaVuSans-3e"/>
     <use x="384.277344" xlink:href="#DejaVuSans-7b"/>
     <use x="447.900391" xlink:href="#DejaVuSans-62"/>
     <use x="511.376953" xlink:href="#DejaVuSans-7d"/>
    </g>
    <!-- a*b == e^2) -->
    <g style="fill:#0000ff;" transform="translate(1576.29932 190.977603)scale(0.1 -0.1)">
     <use xlink:href="#DejaVuSans-61"/>
     <use x="61.279297" xlink:href="#DejaVuSans-2a"/>
     <use x="111.279297" xlink:href="#DejaVuSans-62"/>
     <use x="174.755859" xlink:href="#DejaVuSans-20"/>
     <use x="206.542969" xlink:href="#DejaVuSans-3d"/>
     <use x="290.332031" xlink:href="#DejaVuSans-3d"/>
     <use x="374.121094" xlink:href="#DejaVuSans-20"/>
     <use x="405.908203" xlink:href="#DejaVuSans-65"/>
     <use x="467.431641" xlink:href="#DejaVuSans-5e"/>
     <use x="551.220703" xlink:href="#DejaVuSans-32"/>
     <use x="614.84375" xlink:href="#DejaVuSans-29"/>
    </g>
   </g>
   <g id="text_14">
    <g id="patch_43">
     <path d="M 1399.587039 1711.23774 
L 1512.196414 1711.23774 
L 1512.196414 1682.361802 
L 1399.587039 1682.361802 
z
" style="fill:#ffffff;stroke:#ffffff;stroke-linejoin:miter;"/>
    </g>
    <!-- [d, a]-&gt;{e} -->
    <g style="fill:#0000ff;" transform="translate(1427.140945 1693.96024)scale(0.1 -0.1)">
     <use xlink:href="#DejaVuSans-5b"/>
     <use x="39.013672" xlink:href="#DejaVuSans-64"/>
     <use x="102.490234" xlink:href="#DejaVuSans-2c"/>
     <use x="134.277344" xlink:href="#DejaVuSans-20"/>
     <use x="166.064453" xlink:href="#DejaVuSans-61"/>
     <use x="227.34375" xlink:href="#DejaVuSans-5d"/>
     <use x="266.357422" xlink:href="#DejaVuSans-2d"/>
     <use x="302.441406" xlink:href="#DejaVuSans-3e"/>
     <use x="386.230469" xlink:href="#DejaVuSans-7b"/>
     <use x="449.853516" xlink:href="#DejaVuSans-65"/>
     <use x="511.376953" xlink:href="#DejaVuSans-7d"/>
    </g>
    <!-- a^2 + e^2 == d^2) -->
    <g style="fill:#0000ff;" transform="translate(1403.587039 1705.158052)scale(0.1 -0.1)">
     <use xlink:href="#DejaVuSans-61"/>
     <use x="61.279297" xlink:href="#DejaVuSans-5e"/>
     <use x="145.068359" xlink:href="#DejaVuSans-32"/>
     <use x="208.691406" xlink:href="#DejaVuSans-20"/>
     <use x="240.478516" xlink:href="#DejaVuSans-2b"/>
     <use x="324.267578" xlink:href="#DejaVuSans-20"/>
     <use x="356.054688" xlink:href="#DejaVuSans-65"/>
     <use x="417.578125" xlink:href="#DejaVuSans-5e"/>
     <use x="501.367188" xlink:href="#DejaVuSans-32"/>
     <use x="564.990234" xlink:href="#DejaVuSans-20"/>
     <use x="596.777344" xlink:href="#DejaVuSans-3d"/>
     <use x="680.566406" xlink:href="#DejaVuSans-3d"/>
     <use x="764.355469" xlink:href="#DejaVuSans-20"/>
     <use x="796.142578" xlink:href="#DejaVuSans-64"/>
     <use x="859.619141" xlink:href="#DejaVuSans-5e"/>
     <use x="943.408203" xlink:href="#DejaVuSans-32"/>
     <use x="1007.03125" xlink:href="#DejaVuSans-29"/>
    </g>
   </g>
   <g id="text_15">
    <g id="patch_44">
     <path d="M 3709.637685 317.832182 
L 3783.026747 317.832182 
L 3783.026747 288.956245 
L 3709.637685 288.956245 
z
" style="fill:#ffffff;stroke:#ffffff;stroke-linejoin:miter;"/>
    </g>
    <!-- [a, e]-&gt;{b} -->
    <g style="fill:#0000ff;" transform="translate(3717.581435 300.554682)scale(0.1 -0.1)">
     <use xlink:href="#DejaVuSans-5b"/>
     <use x="39.013672" xlink:href="#DejaVuSans-61"/>
     <use x="100.292969" xlink:href="#DejaVuSans-2c"/>
     <use x="132.080078" xlink:href="#DejaVuSans-20"/>
     <use x="163.867188" xlink:href="#DejaVuSans-65"/>
     <use x="225.390625" xlink:href="#DejaVuSans-5d"/>
     <use x="264.404297" xlink:href="#DejaVuSans-2d"/>
     <use x="300.488281" xlink:href="#DejaVuSans-3e"/>
     <use x="384.277344" xlink:href="#DejaVuSans-7b"/>
     <use x="447.900391" xlink:href="#DejaVuSans-62"/>
     <use x="511.376953" xlink:href="#DejaVuSans-7d"/>
    </g>
    <!-- a*b == e^2) -->
    <g style="fill:#0000ff;" transform="translate(3713.637685 311.752495)scale(0.1 -0.1)">
     <use xlink:href="#DejaVuSans-61"/>
     <use x="61.279297" xlink:href="#DejaVuSans-2a"/>
     <use x="111.279297" xlink:href="#DejaVuSans-62"/>
     <use x="174.755859" xlink:href="#DejaVuSans-20"/>
     <use x="206.542969" xlink:href="#DejaVuSans-3d"/>
     <use x="290.332031" xlink:href="#DejaVuSans-3d"/>
     <use x="374.121094" xlink:href="#DejaVuSans-20"/>
     <use x="405.908203" xlink:href="#DejaVuSans-65"/>
     <use x="467.431641" xlink:href="#DejaVuSans-5e"/>
     <use x="551.220703" xlink:href="#DejaVuSans-32"/>
     <use x="614.84375" xlink:href="#DejaVuSans-29"/>
    </g>
   </g>
   <g id="text_16">
    <g id="patch_45">
     <path d="M 458.133254 1473.896827 
L 523.883254 1473.896827 
L 523.883254 1445.02089 
L 458.133254 1445.02089 
z
" style="fill:#ffffff;stroke:#ffffff;stroke-linejoin:miter;"/>
    </g>
    <!-- [b, a]-&gt;{f} -->
    <g style="fill:#0000ff;" transform="translate(463.573879 1456.619327)scale(0.1 -0.1)">
     <use xlink:href="#DejaVuSans-5b"/>
     <use x="39.013672" xlink:href="#DejaVuSans-62"/>
     <use x="102.490234" xlink:href="#DejaVuSans-2c"/>
     <use x="134.277344" xlink:href="#DejaVuSans-20"/>
     <use x="166.064453" xlink:href="#DejaVuSans-61"/>
     <use x="227.34375" xlink:href="#DejaVuSans-5d"/>
     <use x="266.357422" xlink:href="#DejaVuSans-2d"/>
     <use x="302.441406" xlink:href="#DejaVuSans-3e"/>
     <use x="386.230469" xlink:href="#DejaVuSans-7b"/>
     <use x="449.853516" xlink:href="#DejaVuSans-66"/>
     <use x="485.058594" xlink:href="#DejaVuSans-7d"/>
    </g>
    <!-- f == a + b) -->
    <g style="fill:#0000ff;" transform="translate(462.133254 1467.81714)scale(0.1 -0.1)">
     <use xlink:href="#DejaVuSans-66"/>
     <use x="35.205078" xlink:href="#DejaVuSans-20"/>
     <use x="66.992188" xlink:href="#DejaVuSans-3d"/>
     <use x="150.78125" xlink:href="#DejaVuSans-3d"/>
     <use x="234.570312" xlink:href="#DejaVuSans-20"/>
     <use x="266.357422" xlink:href="#DejaVuSans-61"/>
     <use x="327.636719" xlink:href="#DejaVuSans-20"/>
     <use x="359.423828" xlink:href="#DejaVuSans-2b"/>
     <use x="443.212891" xlink:href="#DejaVuSans-20"/>
     <use x="475" xlink:href="#DejaVuSans-62"/>
     <use x="538.476562" xlink:href="#DejaVuSans-29"/>
    </g>
   </g>
   <g id="text_17">
    <g id="patch_46">
     <path d="M 3007.977515 2352.983267 
L 3078.104078 2352.983267 
L 3078.104078 2324.107329 
L 3007.977515 2324.107329 
z
" style="fill:#ffffff;stroke:#ffffff;stroke-linejoin:miter;"/>
    </g>
    <!-- [c, b]-&gt;{f} -->
    <g style="fill:#0000ff;" transform="translate(3015.921265 2335.705767)scale(0.1 -0.1)">
     <use xlink:href="#DejaVuSans-5b"/>
     <use x="39.013672" xlink:href="#DejaVuSans-63"/>
     <use x="93.994141" xlink:href="#DejaVuSans-2c"/>
     <use x="125.78125" xlink:href="#DejaVuSans-20"/>
     <use x="157.568359" xlink:href="#DejaVuSans-62"/>
     <use x="221.044922" xlink:href="#DejaVuSans-5d"/>
     <use x="260.058594" xlink:href="#DejaVuSans-2d"/>
     <use x="296.142578" xlink:href="#DejaVuSans-3e"/>
     <use x="379.931641" xlink:href="#DejaVuSans-7b"/>
     <use x="443.554688" xlink:href="#DejaVuSans-66"/>
     <use x="478.759766" xlink:href="#DejaVuSans-7d"/>
    </g>
    <!-- c^2 == b*f) -->
    <g style="fill:#0000ff;" transform="translate(3011.977515 2346.903579)scale(0.1 -0.1)">
     <use xlink:href="#DejaVuSans-63"/>
     <use x="54.980469" xlink:href="#DejaVuSans-5e"/>
     <use x="138.769531" xlink:href="#DejaVuSans-32"/>
     <use x="202.392578" xlink:href="#DejaVuSans-20"/>
     <use x="234.179688" xlink:href="#DejaVuSans-3d"/>
     <use x="317.96875" xlink:href="#DejaVuSans-3d"/>
     <use x="401.757812" xlink:href="#DejaVuSans-20"/>
     <use x="433.544922" xlink:href="#DejaVuSans-62"/>
     <use x="497.021484" xlink:href="#DejaVuSans-2a"/>
     <use x="547.021484" xlink:href="#DejaVuSans-66"/>
     <use x="582.226562" xlink:href="#DejaVuSans-29"/>
    </g>
   </g>
   <g id="text_18">
    <g id="patch_47">
     <path d="M 930.500412 561.499342 
L 1043.109787 561.499342 
L 1043.109787 532.623404 
L 930.500412 532.623404 
z
" style="fill:#ffffff;stroke:#ffffff;stroke-linejoin:miter;"/>
    </g>
    <!-- [a, e]-&gt;{d} -->
    <g style="fill:#0000ff;" transform="translate(958.054319 544.221842)scale(0.1 -0.1)">
     <use xlink:href="#DejaVuSans-5b"/>
     <use x="39.013672" xlink:href="#DejaVuSans-61"/>
     <use x="100.292969" xlink:href="#DejaVuSans-2c"/>
     <use x="132.080078" xlink:href="#DejaVuSans-20"/>
     <use x="163.867188" xlink:href="#DejaVuSans-65"/>
     <use x="225.390625" xlink:href="#DejaVuSans-5d"/>
     <use x="264.404297" xlink:href="#DejaVuSans-2d"/>
     <use x="300.488281" xlink:href="#DejaVuSans-3e"/>
     <use x="384.277344" xlink:href="#DejaVuSans-7b"/>
     <use x="447.900391" xlink:href="#DejaVuSans-64"/>
     <use x="511.376953" xlink:href="#DejaVuSans-7d"/>
    </g>
    <!-- a^2 + e^2 == d^2) -->
    <g style="fill:#0000ff;" transform="translate(934.500412 555.419654)scale(0.1 -0.1)">
     <use xlink:href="#DejaVuSans-61"/>
     <use x="61.279297" xlink:href="#DejaVuSans-5e"/>
     <use x="145.068359" xlink:href="#DejaVuSans-32"/>
     <use x="208.691406" xlink:href="#DejaVuSans-20"/>
     <use x="240.478516" xlink:href="#DejaVuSans-2b"/>
     <use x="324.267578" xlink:href="#DejaVuSans-20"/>
     <use x="356.054688" xlink:href="#DejaVuSans-65"/>
     <use x="417.578125" xlink:href="#DejaVuSans-5e"/>
     <use x="501.367188" xlink:href="#DejaVuSans-32"/>
     <use x="564.990234" xlink:href="#DejaVuSans-20"/>
     <use x="596.777344" xlink:href="#DejaVuSans-3d"/>
     <use x="680.566406" xlink:href="#DejaVuSans-3d"/>
     <use x="764.355469" xlink:href="#DejaVuSans-20"/>
     <use x="796.142578" xlink:href="#DejaVuSans-64"/>
     <use x="859.619141" xlink:href="#DejaVuSans-5e"/>
     <use x="943.408203" xlink:href="#DejaVuSans-32"/>
     <use x="1007.03125" xlink:href="#DejaVuSans-29"/>
    </g>
   </g>
   <g id="text_19">
    <g id="patch_48">
     <path d="M 187.220426 2514.965853 
L 260.609488 2514.965853 
L 260.609488 2486.089916 
L 187.220426 2486.089916 
z
" style="fill:#ffffff;stroke:#ffffff;stroke-linejoin:miter;"/>
    </g>
    <!-- [b, a]-&gt;{e} -->
    <g style="fill:#0000ff;" transform="translate(195.164176 2497.688353)scale(0.1 -0.1)">
     <use xlink:href="#DejaVuSans-5b"/>
     <use x="39.013672" xlink:href="#DejaVuSans-62"/>
     <use x="102.490234" xlink:href="#DejaVuSans-2c"/>
     <use x="134.277344" xlink:href="#DejaVuSans-20"/>
     <use x="166.064453" xlink:href="#DejaVuSans-61"/>
     <use x="227.34375" xlink:href="#DejaVuSans-5d"/>
     <use x="266.357422" xlink:href="#DejaVuSans-2d"/>
     <use x="302.441406" xlink:href="#DejaVuSans-3e"/>
     <use x="386.230469" xlink:href="#DejaVuSans-7b"/>
     <use x="449.853516" xlink:href="#DejaVuSans-65"/>
     <use x="511.376953" xlink:href="#DejaVuSans-7d"/>
    </g>
    <!-- a*b == e^2) -->
    <g style="fill:#0000ff;" transform="translate(191.220426 2508.886166)scale(0.1 -0.1)">
     <use xlink:href="#DejaVuSans-61"/>
     <use x="61.279297" xlink:href="#DejaVuSans-2a"/>
     <use x="111.279297" xlink:href="#DejaVuSans-62"/>
     <use x="174.755859" xlink:href="#DejaVuSans-20"/>
     <use x="206.542969" xlink:href="#DejaVuSans-3d"/>
     <use x="290.332031" xlink:href="#DejaVuSans-3d"/>
     <use x="374.121094" xlink:href="#DejaVuSans-20"/>
     <use x="405.908203" xlink:href="#DejaVuSans-65"/>
     <use x="467.431641" xlink:href="#DejaVuSans-5e"/>
     <use x="551.220703" xlink:href="#DejaVuSans-32"/>
     <use x="614.84375" xlink:href="#DejaVuSans-29"/>
    </g>
   </g>
   <g id="text_20">
    <g id="patch_49">
     <path d="M 1751.828315 705.111944 
L 1822.584565 705.111944 
L 1822.584565 676.236006 
L 1751.828315 676.236006 
z
" style="fill:#ffffff;stroke:#ffffff;stroke-linejoin:miter;"/>
    </g>
    <!-- [d, a]-&gt;{f} -->
    <g style="fill:#0000ff;" transform="translate(1759.772065 687.834444)scale(0.1 -0.1)">
     <use xlink:href="#DejaVuSans-5b"/>
     <use x="39.013672" xlink:href="#DejaVuSans-64"/>
     <use x="102.490234" xlink:href="#DejaVuSans-2c"/>
     <use x="134.277344" xlink:href="#DejaVuSans-20"/>
     <use x="166.064453" xlink:href="#DejaVuSans-61"/>
     <use x="227.34375" xlink:href="#DejaVuSans-5d"/>
     <use x="266.357422" xlink:href="#DejaVuSans-2d"/>
     <use x="302.441406" xlink:href="#DejaVuSans-3e"/>
     <use x="386.230469" xlink:href="#DejaVuSans-7b"/>
     <use x="449.853516" xlink:href="#DejaVuSans-66"/>
     <use x="485.058594" xlink:href="#DejaVuSans-7d"/>
    </g>
    <!-- d^2 == a*f) -->
    <g style="fill:#0000ff;" transform="translate(1755.828315 699.032256)scale(0.1 -0.1)">
     <use xlink:href="#DejaVuSans-64"/>
     <use x="63.476562" xlink:href="#DejaVuSans-5e"/>
     <use x="147.265625" xlink:href="#DejaVuSans-32"/>
     <use x="210.888672" xlink:href="#DejaVuSans-20"/>
     <use x="242.675781" xlink:href="#DejaVuSans-3d"/>
     <use x="326.464844" xlink:href="#DejaVuSans-3d"/>
     <use x="410.253906" xlink:href="#DejaVuSans-20"/>
     <use x="442.041016" xlink:href="#DejaVuSans-61"/>
     <use x="503.320312" xlink:href="#DejaVuSans-2a"/>
     <use x="553.320312" xlink:href="#DejaVuSans-66"/>
     <use x="588.525391" xlink:href="#DejaVuSans-29"/>
    </g>
   </g>
   <g id="text_21">
    <g id="patch_50">
     <path d="M 3563.794569 687.802621 
L 3638.543007 687.802621 
L 3638.543007 658.926683 
L 3563.794569 658.926683 
z
" style="fill:#ffffff;stroke:#ffffff;stroke-linejoin:miter;"/>
    </g>
    <!-- [d, c, e]-&gt;{f} -->
    <g style="fill:#0000ff;" transform="translate(3567.794569 670.525121)scale(0.1 -0.1)">
     <use xlink:href="#DejaVuSans-5b"/>
     <use x="39.013672" xlink:href="#DejaVuSans-64"/>
     <use x="102.490234" xlink:href="#DejaVuSans-2c"/>
     <use x="134.277344" xlink:href="#DejaVuSans-20"/>
     <use x="166.064453" xlink:href="#DejaVuSans-63"/>
     <use x="221.044922" xlink:href="#DejaVuSans-2c"/>
     <use x="252.832031" xlink:href="#DejaVuSans-20"/>
     <use x="284.619141" xlink:href="#DejaVuSans-65"/>
     <use x="346.142578" xlink:href="#DejaVuSans-5d"/>
     <use x="385.15625" xlink:href="#DejaVuSans-2d"/>
     <use x="421.240234" xlink:href="#DejaVuSans-3e"/>
     <use x="505.029297" xlink:href="#DejaVuSans-7b"/>
     <use x="568.652344" xlink:href="#DejaVuSans-66"/>
     <use x="603.857422" xlink:href="#DejaVuSans-7d"/>
    </g>
    <!-- c*d == e*f) -->
    <g style="fill:#0000ff;" transform="translate(3571.900038 681.722933)scale(0.1 -0.1)">
     <use xlink:href="#DejaVuSans-63"/>
     <use x="54.980469" xlink:href="#DejaVuSans-2a"/>
     <use x="104.980469" xlink:href="#DejaVuSans-64"/>
     <use x="168.457031" xlink:href="#DejaVuSans-20"/>
     <use x="200.244141" xlink:href="#DejaVuSans-3d"/>
     <use x="284.033203" xlink:href="#DejaVuSans-3d"/>
     <use x="367.822266" xlink:href="#DejaVuSans-20"/>
     <use x="399.609375" xlink:href="#DejaVuSans-65"/>
     <use x="461.132812" xlink:href="#DejaVuSans-2a"/>
     <use x="511.132812" xlink:href="#DejaVuSans-66"/>
     <use x="546.337891" xlink:href="#DejaVuSans-29"/>
    </g>
   </g>
   <g id="text_22">
    <g id="patch_51">
     <path d="M 2670.702249 3996.385299 
L 2780.049124 3996.385299 
L 2780.049124 3967.509362 
L 2670.702249 3967.509362 
z
" style="fill:#ffffff;stroke:#ffffff;stroke-linejoin:miter;"/>
    </g>
    <!-- [f, c]-&gt;{d} -->
    <g style="fill:#0000ff;" transform="translate(2698.256155 3979.107799)scale(0.1 -0.1)">
     <use xlink:href="#DejaVuSans-5b"/>
     <use x="39.013672" xlink:href="#DejaVuSans-66"/>
     <use x="74.21875" xlink:href="#DejaVuSans-2c"/>
     <use x="106.005859" xlink:href="#DejaVuSans-20"/>
     <use x="137.792969" xlink:href="#DejaVuSans-63"/>
     <use x="192.773438" xlink:href="#DejaVuSans-5d"/>
     <use x="231.787109" xlink:href="#DejaVuSans-2d"/>
     <use x="267.871094" xlink:href="#DejaVuSans-3e"/>
     <use x="351.660156" xlink:href="#DejaVuSans-7b"/>
     <use x="415.283203" xlink:href="#DejaVuSans-64"/>
     <use x="478.759766" xlink:href="#DejaVuSans-7d"/>
    </g>
    <!-- c^2 + d^2 == f^2) -->
    <g style="fill:#0000ff;" transform="translate(2674.702249 3990.305612)scale(0.1 -0.1)">
     <use xlink:href="#DejaVuSans-63"/>
     <use x="54.980469" xlink:href="#DejaVuSans-5e"/>
     <use x="138.769531" xlink:href="#DejaVuSans-32"/>
     <use x="202.392578" xlink:href="#DejaVuSans-20"/>
     <use x="234.179688" xlink:href="#DejaVuSans-2b"/>
     <use x="317.96875" xlink:href="#DejaVuSans-20"/>
     <use x="349.755859" xlink:href="#DejaVuSans-64"/>
     <use x="413.232422" xlink:href="#DejaVuSans-5e"/>
     <use x="497.021484" xlink:href="#DejaVuSans-32"/>
     <use x="560.644531" xlink:href="#DejaVuSans-20"/>
     <use x="592.431641" xlink:href="#DejaVuSans-3d"/>
     <use x="676.220703" xlink:href="#DejaVuSans-3d"/>
     <use x="760.009766" xlink:href="#DejaVuSans-20"/>
     <use x="791.796875" xlink:href="#DejaVuSans-66"/>
     <use x="827.001953" xlink:href="#DejaVuSans-5e"/>
     <use x="910.791016" xlink:href="#DejaVuSans-32"/>
     <use x="974.414062" xlink:href="#DejaVuSans-29"/>
    </g>
   </g>
   <g id="text_23">
    <g id="patch_52">
     <path d="M 1692.691302 3851.54036 
L 1758.441302 3851.54036 
L 1758.441302 3822.664423 
L 1692.691302 3822.664423 
z
" style="fill:#ffffff;stroke:#ffffff;stroke-linejoin:miter;"/>
    </g>
    <!-- [f, b]-&gt;{a} -->
    <g style="fill:#0000ff;" transform="translate(1698.131927 3834.26286)scale(0.1 -0.1)">
     <use xlink:href="#DejaVuSans-5b"/>
     <use x="39.013672" xlink:href="#DejaVuSans-66"/>
     <use x="74.21875" xlink:href="#DejaVuSans-2c"/>
     <use x="106.005859" xlink:href="#DejaVuSans-20"/>
     <use x="137.792969" xlink:href="#DejaVuSans-62"/>
     <use x="201.269531" xlink:href="#DejaVuSans-5d"/>
     <use x="240.283203" xlink:href="#DejaVuSans-2d"/>
     <use x="276.367188" xlink:href="#DejaVuSans-3e"/>
     <use x="360.15625" xlink:href="#DejaVuSans-7b"/>
     <use x="423.779297" xlink:href="#DejaVuSans-61"/>
     <use x="485.058594" xlink:href="#DejaVuSans-7d"/>
    </g>
    <!-- f == a + b) -->
    <g style="fill:#0000ff;" transform="translate(1696.691302 3845.460673)scale(0.1 -0.1)">
     <use xlink:href="#DejaVuSans-66"/>
     <use x="35.205078" xlink:href="#DejaVuSans-20"/>
     <use x="66.992188" xlink:href="#DejaVuSans-3d"/>
     <use x="150.78125" xlink:href="#DejaVuSans-3d"/>
     <use x="234.570312" xlink:href="#DejaVuSans-20"/>
     <use x="266.357422" xlink:href="#DejaVuSans-61"/>
     <use x="327.636719" xlink:href="#DejaVuSans-20"/>
     <use x="359.423828" xlink:href="#DejaVuSans-2b"/>
     <use x="443.212891" xlink:href="#DejaVuSans-20"/>
     <use x="475" xlink:href="#DejaVuSans-62"/>
     <use x="538.476562" xlink:href="#DejaVuSans-29"/>
    </g>
   </g>
   <g id="text_24">
    <g id="patch_53">
     <path d="M 3274.99271 3660.326189 
L 3345.119273 3660.326189 
L 3345.119273 3631.450252 
L 3274.99271 3631.450252 
z
" style="fill:#ffffff;stroke:#ffffff;stroke-linejoin:miter;"/>
    </g>
    <!-- [f, c]-&gt;{b} -->
    <g style="fill:#0000ff;" transform="translate(3282.93646 3643.048689)scale(0.1 -0.1)">
     <use xlink:href="#DejaVuSans-5b"/>
     <use x="39.013672" xlink:href="#DejaVuSans-66"/>
     <use x="74.21875" xlink:href="#DejaVuSans-2c"/>
     <use x="106.005859" xlink:href="#DejaVuSans-20"/>
     <use x="137.792969" xlink:href="#DejaVuSans-63"/>
     <use x="192.773438" xlink:href="#DejaVuSans-5d"/>
     <use x="231.787109" xlink:href="#DejaVuSans-2d"/>
     <use x="267.871094" xlink:href="#DejaVuSans-3e"/>
     <use x="351.660156" xlink:href="#DejaVuSans-7b"/>
     <use x="415.283203" xlink:href="#DejaVuSans-62"/>
     <use x="478.759766" xlink:href="#DejaVuSans-7d"/>
    </g>
    <!-- c^2 == b*f) -->
    <g style="fill:#0000ff;" transform="translate(3278.99271 3654.246502)scale(0.1 -0.1)">
     <use xlink:href="#DejaVuSans-63"/>
     <use x="54.980469" xlink:href="#DejaVuSans-5e"/>
     <use x="138.769531" xlink:href="#DejaVuSans-32"/>
     <use x="202.392578" xlink:href="#DejaVuSans-20"/>
     <use x="234.179688" xlink:href="#DejaVuSans-3d"/>
     <use x="317.96875" xlink:href="#DejaVuSans-3d"/>
     <use x="401.757812" xlink:href="#DejaVuSans-20"/>
     <use x="433.544922" xlink:href="#DejaVuSans-62"/>
     <use x="497.021484" xlink:href="#DejaVuSans-2a"/>
     <use x="547.021484" xlink:href="#DejaVuSans-66"/>
     <use x="582.226562" xlink:href="#DejaVuSans-29"/>
    </g>
   </g>
   <g id="text_25">
    <g id="patch_54">
     <path d="M 2558.780591 1554.518344 
L 2632.169654 1554.518344 
L 2632.169654 1525.642406 
L 2558.780591 1525.642406 
z
" style="fill:#ffffff;stroke:#ffffff;stroke-linejoin:miter;"/>
    </g>
    <!-- [b, e]-&gt;{a} -->
    <g style="fill:#0000ff;" transform="translate(2566.724341 1537.240844)scale(0.1 -0.1)">
     <use xlink:href="#DejaVuSans-5b"/>
     <use x="39.013672" xlink:href="#DejaVuSans-62"/>
     <use x="102.490234" xlink:href="#DejaVuSans-2c"/>
     <use x="134.277344" xlink:href="#DejaVuSans-20"/>
     <use x="166.064453" xlink:href="#DejaVuSans-65"/>
     <use x="227.587891" xlink:href="#DejaVuSans-5d"/>
     <use x="266.601562" xlink:href="#DejaVuSans-2d"/>
     <use x="302.685547" xlink:href="#DejaVuSans-3e"/>
     <use x="386.474609" xlink:href="#DejaVuSans-7b"/>
     <use x="450.097656" xlink:href="#DejaVuSans-61"/>
     <use x="511.376953" xlink:href="#DejaVuSans-7d"/>
    </g>
    <!-- a*b == e^2) -->
    <g style="fill:#0000ff;" transform="translate(2562.780591 1548.438656)scale(0.1 -0.1)">
     <use xlink:href="#DejaVuSans-61"/>
     <use x="61.279297" xlink:href="#DejaVuSans-2a"/>
     <use x="111.279297" xlink:href="#DejaVuSans-62"/>
     <use x="174.755859" xlink:href="#DejaVuSans-20"/>
     <use x="206.542969" xlink:href="#DejaVuSans-3d"/>
     <use x="290.332031" xlink:href="#DejaVuSans-3d"/>
     <use x="374.121094" xlink:href="#DejaVuSans-20"/>
     <use x="405.908203" xlink:href="#DejaVuSans-65"/>
     <use x="467.431641" xlink:href="#DejaVuSans-5e"/>
     <use x="551.220703" xlink:href="#DejaVuSans-32"/>
     <use x="614.84375" xlink:href="#DejaVuSans-29"/>
    </g>
   </g>
   <g id="text_26">
    <g id="patch_55">
     <path d="M 4036.68134 1672.596468 
L 4114.03759 1672.596468 
L 4114.03759 1643.720531 
L 4036.68134 1643.720531 
z
" style="fill:#ffffff;stroke:#ffffff;stroke-linejoin:miter;"/>
    </g>
    <!-- [d, c, e]-&gt;{a} -->
    <g style="fill:#0000ff;" transform="translate(4040.68134 1655.318968)scale(0.1 -0.1)">
     <use xlink:href="#DejaVuSans-5b"/>
     <use x="39.013672" xlink:href="#DejaVuSans-64"/>
     <use x="102.490234" xlink:href="#DejaVuSans-2c"/>
     <use x="134.277344" xlink:href="#DejaVuSans-20"/>
     <use x="166.064453" xlink:href="#DejaVuSans-63"/>
     <use x="221.044922" xlink:href="#DejaVuSans-2c"/>
     <use x="252.832031" xlink:href="#DejaVuSans-20"/>
     <use x="284.619141" xlink:href="#DejaVuSans-65"/>
     <use x="346.142578" xlink:href="#DejaVuSans-5d"/>
     <use x="385.15625" xlink:href="#DejaVuSans-2d"/>
     <use x="421.240234" xlink:href="#DejaVuSans-3e"/>
     <use x="505.029297" xlink:href="#DejaVuSans-7b"/>
     <use x="568.652344" xlink:href="#DejaVuSans-61"/>
     <use x="629.931641" xlink:href="#DejaVuSans-7d"/>
    </g>
    <!-- a*c == d*e) -->
    <g style="fill:#0000ff;" transform="translate(4044.786809 1666.516781)scale(0.1 -0.1)">
     <use xlink:href="#DejaVuSans-61"/>
     <use x="61.279297" xlink:href="#DejaVuSans-2a"/>
     <use x="111.279297" xlink:href="#DejaVuSans-63"/>
     <use x="166.259766" xlink:href="#DejaVuSans-20"/>
     <use x="198.046875" xlink:href="#DejaVuSans-3d"/>
     <use x="281.835938" xlink:href="#DejaVuSans-3d"/>
     <use x="365.625" xlink:href="#DejaVuSans-20"/>
     <use x="397.412109" xlink:href="#DejaVuSans-64"/>
     <use x="460.888672" xlink:href="#DejaVuSans-2a"/>
     <use x="510.888672" xlink:href="#DejaVuSans-65"/>
     <use x="572.412109" xlink:href="#DejaVuSans-29"/>
    </g>
   </g>
   <g id="text_27">
    <g id="patch_56">
     <path d="M 1824.933209 2622.838496 
L 1934.280084 2622.838496 
L 1934.280084 2593.962559 
L 1824.933209 2593.962559 
z
" style="fill:#ffffff;stroke:#ffffff;stroke-linejoin:miter;"/>
    </g>
    <!-- [f, d]-&gt;{c} -->
    <g style="fill:#0000ff;" transform="translate(1852.487116 2605.560996)scale(0.1 -0.1)">
     <use xlink:href="#DejaVuSans-5b"/>
     <use x="39.013672" xlink:href="#DejaVuSans-66"/>
     <use x="74.21875" xlink:href="#DejaVuSans-2c"/>
     <use x="106.005859" xlink:href="#DejaVuSans-20"/>
     <use x="137.792969" xlink:href="#DejaVuSans-64"/>
     <use x="201.269531" xlink:href="#DejaVuSans-5d"/>
     <use x="240.283203" xlink:href="#DejaVuSans-2d"/>
     <use x="276.367188" xlink:href="#DejaVuSans-3e"/>
     <use x="360.15625" xlink:href="#DejaVuSans-7b"/>
     <use x="423.779297" xlink:href="#DejaVuSans-63"/>
     <use x="478.759766" xlink:href="#DejaVuSans-7d"/>
    </g>
    <!-- c^2 + d^2 == f^2) -->
    <g style="fill:#0000ff;" transform="translate(1828.933209 2616.758809)scale(0.1 -0.1)">
     <use xlink:href="#DejaVuSans-63"/>
     <use x="54.980469" xlink:href="#DejaVuSans-5e"/>
     <use x="138.769531" xlink:href="#DejaVuSans-32"/>
     <use x="202.392578" xlink:href="#DejaVuSans-20"/>
     <use x="234.179688" xlink:href="#DejaVuSans-2b"/>
     <use x="317.96875" xlink:href="#DejaVuSans-20"/>
     <use x="349.755859" xlink:href="#DejaVuSans-64"/>
     <use x="413.232422" xlink:href="#DejaVuSans-5e"/>
     <use x="497.021484" xlink:href="#DejaVuSans-32"/>
     <use x="560.644531" xlink:href="#DejaVuSans-20"/>
     <use x="592.431641" xlink:href="#DejaVuSans-3d"/>
     <use x="676.220703" xlink:href="#DejaVuSans-3d"/>
     <use x="760.009766" xlink:href="#DejaVuSans-20"/>
     <use x="791.796875" xlink:href="#DejaVuSans-66"/>
     <use x="827.001953" xlink:href="#DejaVuSans-5e"/>
     <use x="910.791016" xlink:href="#DejaVuSans-32"/>
     <use x="974.414062" xlink:href="#DejaVuSans-29"/>
    </g>
   </g>
   <g id="text_28">
    <!-- Wisdom Graph -->
    <defs>
     <path d="M 3.328125 72.90625 
L 13.28125 72.90625 
L 28.609375 11.28125 
L 43.890625 72.90625 
L 54.984375 72.90625 
L 70.3125 11.28125 
L 85.59375 72.90625 
L 95.609375 72.90625 
L 77.296875 0 
L 64.890625 0 
L 49.515625 63.28125 
L 33.984375 0 
L 21.578125 0 
z
" id="DejaVuSans-57"/>
     <path d="M 9.421875 54.6875 
L 18.40625 54.6875 
L 18.40625 0 
L 9.421875 0 
z
M 9.421875 75.984375 
L 18.40625 75.984375 
L 18.40625 64.59375 
L 9.421875 64.59375 
z
" id="DejaVuSans-69"/>
     <path d="M 44.28125 53.078125 
L 44.28125 44.578125 
Q 40.484375 46.53125 36.375 47.5 
Q 32.28125 48.484375 27.875 48.484375 
Q 21.1875 48.484375 17.84375 46.4375 
Q 14.5 44.390625 14.5 40.28125 
Q 14.5 37.15625 16.890625 35.375 
Q 19.28125 33.59375 26.515625 31.984375 
L 29.59375 31.296875 
Q 39.15625 29.25 43.1875 25.515625 
Q 47.21875 21.78125 47.21875 15.09375 
Q 47.21875 7.46875 41.1875 3.015625 
Q 35.15625 -1.421875 24.609375 -1.421875 
Q 20.21875 -1.421875 15.453125 -0.5625 
Q 10.6875 0.296875 5.421875 2 
L 5.421875 11.28125 
Q 10.40625 8.6875 15.234375 7.390625 
Q 20.0625 6.109375 24.8125 6.109375 
Q 31.15625 6.109375 34.5625 8.28125 
Q 37.984375 10.453125 37.984375 14.40625 
Q 37.984375 18.0625 35.515625 20.015625 
Q 33.0625 21.96875 24.703125 23.78125 
L 21.578125 24.515625 
Q 13.234375 26.265625 9.515625 29.90625 
Q 5.8125 33.546875 5.8125 39.890625 
Q 5.8125 47.609375 11.28125 51.796875 
Q 16.75 56 26.8125 56 
Q 31.78125 56 36.171875 55.265625 
Q 40.578125 54.546875 44.28125 53.078125 
z
" id="DejaVuSans-73"/>
     <path d="M 30.609375 48.390625 
Q 23.390625 48.390625 19.1875 42.75 
Q 14.984375 37.109375 14.984375 27.296875 
Q 14.984375 17.484375 19.15625 11.84375 
Q 23.34375 6.203125 30.609375 6.203125 
Q 37.796875 6.203125 41.984375 11.859375 
Q 46.1875 17.53125 46.1875 27.296875 
Q 46.1875 37.015625 41.984375 42.703125 
Q 37.796875 48.390625 30.609375 48.390625 
z
M 30.609375 56 
Q 42.328125 56 49.015625 48.375 
Q 55.71875 40.765625 55.71875 27.296875 
Q 55.71875 13.875 49.015625 6.21875 
Q 42.328125 -1.421875 30.609375 -1.421875 
Q 18.84375 -1.421875 12.171875 6.21875 
Q 5.515625 13.875 5.515625 27.296875 
Q 5.515625 40.765625 12.171875 48.375 
Q 18.84375 56 30.609375 56 
z
" id="DejaVuSans-6f"/>
     <path d="M 52 44.1875 
Q 55.375 50.25 60.0625 53.125 
Q 64.75 56 71.09375 56 
Q 79.640625 56 84.28125 50.015625 
Q 88.921875 44.046875 88.921875 33.015625 
L 88.921875 0 
L 79.890625 0 
L 79.890625 32.71875 
Q 79.890625 40.578125 77.09375 44.375 
Q 74.3125 48.1875 68.609375 48.1875 
Q 61.625 48.1875 57.5625 43.546875 
Q 53.515625 38.921875 53.515625 30.90625 
L 53.515625 0 
L 44.484375 0 
L 44.484375 32.71875 
Q 44.484375 40.625 41.703125 44.40625 
Q 38.921875 48.1875 33.109375 48.1875 
Q 26.21875 48.1875 22.15625 43.53125 
Q 18.109375 38.875 18.109375 30.90625 
L 18.109375 0 
L 9.078125 0 
L 9.078125 54.6875 
L 18.109375 54.6875 
L 18.109375 46.1875 
Q 21.1875 51.21875 25.484375 53.609375 
Q 29.78125 56 35.6875 56 
Q 41.65625 56 45.828125 52.96875 
Q 50 49.953125 52 44.1875 
z
" id="DejaVuSans-6d"/>
     <path d="M 59.515625 10.40625 
L 59.515625 29.984375 
L 43.40625 29.984375 
L 43.40625 38.09375 
L 69.28125 38.09375 
L 69.28125 6.78125 
Q 63.578125 2.734375 56.6875 0.65625 
Q 49.8125 -1.421875 42 -1.421875 
Q 24.90625 -1.421875 15.25 8.5625 
Q 5.609375 18.5625 5.609375 36.375 
Q 5.609375 54.25 15.25 64.234375 
Q 24.90625 74.21875 42 74.21875 
Q 49.125 74.21875 55.546875 72.453125 
Q 61.96875 70.703125 67.390625 67.28125 
L 67.390625 56.78125 
Q 61.921875 61.421875 55.765625 63.765625 
Q 49.609375 66.109375 42.828125 66.109375 
Q 29.4375 66.109375 22.71875 58.640625 
Q 16.015625 51.171875 16.015625 36.375 
Q 16.015625 21.625 22.71875 14.15625 
Q 29.4375 6.6875 42.828125 6.6875 
Q 48.046875 6.6875 52.140625 7.59375 
Q 56.25 8.5 59.515625 10.40625 
z
" id="DejaVuSans-47"/>
     <path d="M 41.109375 46.296875 
Q 39.59375 47.171875 37.8125 47.578125 
Q 36.03125 48 33.890625 48 
Q 26.265625 48 22.1875 43.046875 
Q 18.109375 38.09375 18.109375 28.8125 
L 18.109375 0 
L 9.078125 0 
L 9.078125 54.6875 
L 18.109375 54.6875 
L 18.109375 46.1875 
Q 20.953125 51.171875 25.484375 53.578125 
Q 30.03125 56 36.53125 56 
Q 37.453125 56 38.578125 55.875 
Q 39.703125 55.765625 41.0625 55.515625 
z
" id="DejaVuSans-72"/>
     <path d="M 18.109375 8.203125 
L 18.109375 -20.796875 
L 9.078125 -20.796875 
L 9.078125 54.6875 
L 18.109375 54.6875 
L 18.109375 46.390625 
Q 20.953125 51.265625 25.265625 53.625 
Q 29.59375 56 35.59375 56 
Q 45.5625 56 51.78125 48.09375 
Q 58.015625 40.1875 58.015625 27.296875 
Q 58.015625 14.40625 51.78125 6.484375 
Q 45.5625 -1.421875 35.59375 -1.421875 
Q 29.59375 -1.421875 25.265625 0.953125 
Q 20.953125 3.328125 18.109375 8.203125 
z
M 48.6875 27.296875 
Q 48.6875 37.203125 44.609375 42.84375 
Q 40.53125 48.484375 33.40625 48.484375 
Q 26.265625 48.484375 22.1875 42.84375 
Q 18.109375 37.203125 18.109375 27.296875 
Q 18.109375 17.390625 22.1875 11.75 
Q 26.265625 6.109375 33.40625 6.109375 
Q 40.53125 6.109375 44.609375 11.75 
Q 48.6875 17.390625 48.6875 27.296875 
z
" id="DejaVuSans-70"/>
     <path d="M 54.890625 33.015625 
L 54.890625 0 
L 45.90625 0 
L 45.90625 32.71875 
Q 45.90625 40.484375 42.875 44.328125 
Q 39.84375 48.1875 33.796875 48.1875 
Q 26.515625 48.1875 22.3125 43.546875 
Q 18.109375 38.921875 18.109375 30.90625 
L 18.109375 0 
L 9.078125 0 
L 9.078125 75.984375 
L 18.109375 75.984375 
L 18.109375 46.1875 
Q 21.34375 51.125 25.703125 53.5625 
Q 30.078125 56 35.796875 56 
Q 45.21875 56 50.046875 50.171875 
Q 54.890625 44.34375 54.890625 33.015625 
z
" id="DejaVuSans-68"/>
    </defs>
    <g transform="translate(3559.434375 14.798437)scale(0.1 -0.1)">
     <use xlink:href="#DejaVuSans-57"/>
     <use x="98.845703" xlink:href="#DejaVuSans-69"/>
     <use x="126.628906" xlink:href="#DejaVuSans-73"/>
     <use x="178.728516" xlink:href="#DejaVuSans-64"/>
     <use x="242.205078" xlink:href="#DejaVuSans-6f"/>
     <use x="303.386719" xlink:href="#DejaVuSans-6d"/>
     <use x="400.798828" xlink:href="#DejaVuSans-20"/>
     <use x="432.585938" xlink:href="#DejaVuSans-47"/>
     <use x="510.076172" xlink:href="#DejaVuSans-72"/>
     <use x="551.189453" xlink:href="#DejaVuSans-61"/>
     <use x="612.46875" xlink:href="#DejaVuSans-70"/>
     <use x="675.945312" xlink:href="#DejaVuSans-68"/>
    </g>
   </g>
   <g id="PathCollection_1">
    <defs>
     <path d="M 0 7.071068 
C 1.875269 7.071068 3.673985 6.326016 5 5 
C 6.326016 3.673985 7.071068 1.875269 7.071068 0 
C 7.071068 -1.875269 6.326016 -3.673985 5 -5 
C 3.673985 -6.326016 1.875269 -7.071068 0 -7.071068 
C -1.875269 -7.071068 -3.673985 -6.326016 -5 -5 
C -6.326016 -3.673985 -7.071068 -1.875269 -7.071068 0 
C -7.071068 1.875269 -6.326016 3.673985 -5 5 
C -3.673985 6.326016 -1.875269 7.071068 0 7.071068 
z
" id="ma63dfde407" style="stroke:#000000;"/>
    </defs>
    <g>
     <use style="fill:#fec7b8;stroke:#000000;" x="2012.999481" xlink:href="#ma63dfde407" y="1314.722692"/>
     <use style="fill:#fec7b8;stroke:#000000;" x="1143.772771" xlink:href="#ma63dfde407" y="3803.565122"/>
     <use style="fill:#fec7b8;stroke:#000000;" x="6013.523527" xlink:href="#ma63dfde407" y="1970.847576"/>
     <use style="fill:#fec7b8;stroke:#000000;" x="3476.720444" xlink:href="#ma63dfde407" y="3198.521441"/>
     <use style="fill:#fec7b8;stroke:#000000;" x="148.611538" xlink:href="#ma63dfde407" y="1925.445498"/>
     <use style="fill:#fec7b8;stroke:#000000;" x="7044.188462" xlink:href="#ma63dfde407" y="1970.847576"/>
     <use style="fill:#fec7b8;stroke:#000000;" x="833.40497" xlink:href="#ma63dfde407" y="993.472219"/>
     <use style="fill:#fec7b8;stroke:#000000;" x="299.218376" xlink:href="#ma63dfde407" y="3075.610272"/>
     <use style="fill:#fec7b8;stroke:#000000;" x="1415.153044" xlink:href="#ma63dfde407" y="2276.839708"/>
     <use style="fill:#fec7b8;stroke:#000000;" x="2077.782472" xlink:href="#ma63dfde407" y="264.588116"/>
     <use style="fill:#fec7b8;stroke:#000000;" x="3282.97512" xlink:href="#ma63dfde407" y="266.51744"/>
     <use style="fill:#fec7b8;stroke:#000000;" x="2344.06025" xlink:href="#ma63dfde407" y="2939.961347"/>
     <use style="fill:#fec7b8;stroke:#000000;" x="4982.858592" xlink:href="#ma63dfde407" y="1872.139814"/>
     <use style="fill:#fec7b8;stroke:#000000;" x="1140.20523" xlink:href="#ma63dfde407" y="100.650527"/>
     <use style="fill:#fec7b8;stroke:#000000;" x="553.222282" xlink:href="#ma63dfde407" y="2615.081629"/>
     <use style="fill:#fec7b8;stroke:#000000;" x="2908.130829" xlink:href="#ma63dfde407" y="2911.652539"/>
     <use style="fill:#fec7b8;stroke:#000000;" x="4323.859342" xlink:href="#ma63dfde407" y="1297.197764"/>
     <use style="fill:#fec7b8;stroke:#000000;" x="3143.391539" xlink:href="#ma63dfde407" y="4093.255"/>
     <use style="fill:#fec7b8;stroke:#000000;" x="4231.356473" xlink:href="#ma63dfde407" y="2236.105135"/>
     <use style="fill:#fec7b8;stroke:#000000;" x="3177.950764" xlink:href="#ma63dfde407" y="1765.438058"/>
     <use style="fill:#fec7b8;stroke:#000000;" x="2307.359833" xlink:href="#ma63dfde407" y="3870.639661"/>
     <use style="fill:#fec7b8;stroke:#000000;" x="4209.689313" xlink:href="#ma63dfde407" y="340.270986"/>
     <use style="fill:#fec7b8;stroke:#000000;" x="1496.630409" xlink:href="#ma63dfde407" y="1116.759834"/>
     <use style="fill:#fec7b8;stroke:#000000;" x="3919.362457" xlink:href="#ma63dfde407" y="1080.211864"/>
    </g>
   </g>
   <g id="text_29">
    <!-- abce -->
    <g transform="translate(2000.935419 1317.482067)scale(0.1 -0.1)">
     <use xlink:href="#DejaVuSans-61"/>
     <use x="61.279297" xlink:href="#DejaVuSans-62"/>
     <use x="124.755859" xlink:href="#DejaVuSans-63"/>
     <use x="179.736328" xlink:href="#DejaVuSans-65"/>
    </g>
   </g>
   <g id="text_30">
    <!-- abcf -->
    <g transform="translate(1133.025115 3806.324497)scale(0.1 -0.1)">
     <use xlink:href="#DejaVuSans-61"/>
     <use x="61.279297" xlink:href="#DejaVuSans-62"/>
     <use x="124.755859" xlink:href="#DejaVuSans-63"/>
     <use x="179.736328" xlink:href="#DejaVuSans-66"/>
    </g>
   </g>
   <g id="text_31">
    <!-- ignorancia -->
    <defs>
     <path d="M 45.40625 27.984375 
Q 45.40625 37.75 41.375 43.109375 
Q 37.359375 48.484375 30.078125 48.484375 
Q 22.859375 48.484375 18.828125 43.109375 
Q 14.796875 37.75 14.796875 27.984375 
Q 14.796875 18.265625 18.828125 12.890625 
Q 22.859375 7.515625 30.078125 7.515625 
Q 37.359375 7.515625 41.375 12.890625 
Q 45.40625 18.265625 45.40625 27.984375 
z
M 54.390625 6.78125 
Q 54.390625 -7.171875 48.1875 -13.984375 
Q 42 -20.796875 29.203125 -20.796875 
Q 24.46875 -20.796875 20.265625 -20.09375 
Q 16.0625 -19.390625 12.109375 -17.921875 
L 12.109375 -9.1875 
Q 16.0625 -11.328125 19.921875 -12.34375 
Q 23.78125 -13.375 27.78125 -13.375 
Q 36.625 -13.375 41.015625 -8.765625 
Q 45.40625 -4.15625 45.40625 5.171875 
L 45.40625 9.625 
Q 42.625 4.78125 38.28125 2.390625 
Q 33.9375 0 27.875 0 
Q 17.828125 0 11.671875 7.65625 
Q 5.515625 15.328125 5.515625 27.984375 
Q 5.515625 40.671875 11.671875 48.328125 
Q 17.828125 56 27.875 56 
Q 33.9375 56 38.28125 53.609375 
Q 42.625 51.21875 45.40625 46.390625 
L 45.40625 54.6875 
L 54.390625 54.6875 
z
" id="DejaVuSans-67"/>
     <path d="M 54.890625 33.015625 
L 54.890625 0 
L 45.90625 0 
L 45.90625 32.71875 
Q 45.90625 40.484375 42.875 44.328125 
Q 39.84375 48.1875 33.796875 48.1875 
Q 26.515625 48.1875 22.3125 43.546875 
Q 18.109375 38.921875 18.109375 30.90625 
L 18.109375 0 
L 9.078125 0 
L 9.078125 54.6875 
L 18.109375 54.6875 
L 18.109375 46.1875 
Q 21.34375 51.125 25.703125 53.5625 
Q 30.078125 56 35.796875 56 
Q 45.21875 56 50.046875 50.171875 
Q 54.890625 44.34375 54.890625 33.015625 
z
" id="DejaVuSans-6e"/>
    </defs>
    <g transform="translate(5987.241495 1973.606951)scale(0.1 -0.1)">
     <use xlink:href="#DejaVuSans-69"/>
     <use x="27.783203" xlink:href="#DejaVuSans-67"/>
     <use x="91.259766" xlink:href="#DejaVuSans-6e"/>
     <use x="154.638672" xlink:href="#DejaVuSans-6f"/>
     <use x="215.820312" xlink:href="#DejaVuSans-72"/>
     <use x="256.933594" xlink:href="#DejaVuSans-61"/>
     <use x="318.212891" xlink:href="#DejaVuSans-6e"/>
     <use x="381.591797" xlink:href="#DejaVuSans-63"/>
     <use x="436.572266" xlink:href="#DejaVuSans-69"/>
     <use x="464.355469" xlink:href="#DejaVuSans-61"/>
    </g>
   </g>
   <g id="text_32">
    <!-- cdf -->
    <g transform="translate(3469.03685 3201.280816)scale(0.1 -0.1)">
     <use xlink:href="#DejaVuSans-63"/>
     <use x="54.980469" xlink:href="#DejaVuSans-64"/>
     <use x="118.457031" xlink:href="#DejaVuSans-66"/>
    </g>
   </g>
   <g id="text_33">
    <!-- abef -->
    <g transform="translate(137.536538 1928.204873)scale(0.1 -0.1)">
     <use xlink:href="#DejaVuSans-61"/>
     <use x="61.279297" xlink:href="#DejaVuSans-62"/>
     <use x="124.755859" xlink:href="#DejaVuSans-65"/>
     <use x="186.279297" xlink:href="#DejaVuSans-66"/>
    </g>
   </g>
   <g id="text_34">
    <!-- conhecimento -->
    <defs>
     <path d="M 18.3125 70.21875 
L 18.3125 54.6875 
L 36.8125 54.6875 
L 36.8125 47.703125 
L 18.3125 47.703125 
L 18.3125 18.015625 
Q 18.3125 11.328125 20.140625 9.421875 
Q 21.96875 7.515625 27.59375 7.515625 
L 36.8125 7.515625 
L 36.8125 0 
L 27.59375 0 
Q 17.1875 0 13.234375 3.875 
Q 9.28125 7.765625 9.28125 18.015625 
L 9.28125 47.703125 
L 2.6875 47.703125 
L 2.6875 54.6875 
L 9.28125 54.6875 
L 9.28125 70.21875 
z
" id="DejaVuSans-74"/>
    </defs>
    <g transform="translate(7008.692368 1973.606951)scale(0.1 -0.1)">
     <use xlink:href="#DejaVuSans-63"/>
     <use x="54.980469" xlink:href="#DejaVuSans-6f"/>
     <use x="116.162109" xlink:href="#DejaVuSans-6e"/>
     <use x="179.541016" xlink:href="#DejaVuSans-68"/>
     <use x="242.919922" xlink:href="#DejaVuSans-65"/>
     <use x="304.443359" xlink:href="#DejaVuSans-63"/>
     <use x="359.423828" xlink:href="#DejaVuSans-69"/>
     <use x="387.207031" xlink:href="#DejaVuSans-6d"/>
     <use x="484.619141" xlink:href="#DejaVuSans-65"/>
     <use x="546.142578" xlink:href="#DejaVuSans-6e"/>
     <use x="609.521484" xlink:href="#DejaVuSans-74"/>
     <use x="648.730469" xlink:href="#DejaVuSans-6f"/>
    </g>
   </g>
   <g id="text_35">
    <!-- abe -->
    <g transform="translate(824.090126 996.231594)scale(0.1 -0.1)">
     <use xlink:href="#DejaVuSans-61"/>
     <use x="61.279297" xlink:href="#DejaVuSans-62"/>
     <use x="124.755859" xlink:href="#DejaVuSans-65"/>
    </g>
   </g>
   <g id="text_36">
    <!-- abf -->
    <g transform="translate(291.219938 3078.369647)scale(0.1 -0.1)">
     <use xlink:href="#DejaVuSans-61"/>
     <use x="61.279297" xlink:href="#DejaVuSans-62"/>
     <use x="124.755859" xlink:href="#DejaVuSans-66"/>
    </g>
   </g>
   <g id="text_37">
    <!-- adf -->
    <g transform="translate(1407.154606 2279.599083)scale(0.1 -0.1)">
     <use xlink:href="#DejaVuSans-61"/>
     <use x="61.279297" xlink:href="#DejaVuSans-64"/>
     <use x="124.755859" xlink:href="#DejaVuSans-66"/>
    </g>
   </g>
   <g id="text_38">
    <!-- ade -->
    <g transform="translate(2068.467628 267.347491)scale(0.1 -0.1)">
     <use xlink:href="#DejaVuSans-61"/>
     <use x="61.279297" xlink:href="#DejaVuSans-64"/>
     <use x="124.755859" xlink:href="#DejaVuSans-65"/>
    </g>
   </g>
   <g id="text_39">
    <!-- acde -->
    <g transform="translate(3270.911057 269.276815)scale(0.1 -0.1)">
     <use xlink:href="#DejaVuSans-61"/>
     <use x="61.279297" xlink:href="#DejaVuSans-63"/>
     <use x="116.259766" xlink:href="#DejaVuSans-64"/>
     <use x="179.736328" xlink:href="#DejaVuSans-65"/>
    </g>
   </g>
   <g id="text_40">
    <!-- acdf -->
    <g transform="translate(2333.312593 2942.720722)scale(0.1 -0.1)">
     <use xlink:href="#DejaVuSans-61"/>
     <use x="61.279297" xlink:href="#DejaVuSans-63"/>
     <use x="116.259766" xlink:href="#DejaVuSans-64"/>
     <use x="179.736328" xlink:href="#DejaVuSans-66"/>
    </g>
   </g>
   <g id="text_41">
    <!-- bcdef -->
    <g transform="translate(4968.924217 1874.899189)scale(0.1 -0.1)">
     <use xlink:href="#DejaVuSans-62"/>
     <use x="63.476562" xlink:href="#DejaVuSans-63"/>
     <use x="118.457031" xlink:href="#DejaVuSans-64"/>
     <use x="181.933594" xlink:href="#DejaVuSans-65"/>
     <use x="243.457031" xlink:href="#DejaVuSans-66"/>
    </g>
   </g>
   <g id="text_42">
    <!-- abde -->
    <g transform="translate(1127.716168 103.409902)scale(0.1 -0.1)">
     <use xlink:href="#DejaVuSans-61"/>
     <use x="61.279297" xlink:href="#DejaVuSans-62"/>
     <use x="124.755859" xlink:href="#DejaVuSans-64"/>
     <use x="188.232422" xlink:href="#DejaVuSans-65"/>
    </g>
   </g>
   <g id="text_43">
    <!-- abdf -->
    <g transform="translate(542.049626 2617.841004)scale(0.1 -0.1)">
     <use xlink:href="#DejaVuSans-61"/>
     <use x="61.279297" xlink:href="#DejaVuSans-62"/>
     <use x="124.755859" xlink:href="#DejaVuSans-64"/>
     <use x="188.232422" xlink:href="#DejaVuSans-66"/>
    </g>
   </g>
   <g id="text_44">
    <!-- bcef -->
    <g transform="translate(2897.370672 2914.411914)scale(0.1 -0.1)">
     <use xlink:href="#DejaVuSans-62"/>
     <use x="63.476562" xlink:href="#DejaVuSans-63"/>
     <use x="118.457031" xlink:href="#DejaVuSans-65"/>
     <use x="179.980469" xlink:href="#DejaVuSans-66"/>
    </g>
   </g>
   <g id="text_45">
    <!-- bcde -->
    <g transform="translate(4311.685123 1299.957139)scale(0.1 -0.1)">
     <use xlink:href="#DejaVuSans-62"/>
     <use x="63.476562" xlink:href="#DejaVuSans-63"/>
     <use x="118.457031" xlink:href="#DejaVuSans-64"/>
     <use x="181.933594" xlink:href="#DejaVuSans-65"/>
    </g>
   </g>
   <g id="text_46">
    <!-- bcdf -->
    <g transform="translate(3132.533727 4096.014375)scale(0.1 -0.1)">
     <use xlink:href="#DejaVuSans-62"/>
     <use x="63.476562" xlink:href="#DejaVuSans-63"/>
     <use x="118.457031" xlink:href="#DejaVuSans-64"/>
     <use x="181.933594" xlink:href="#DejaVuSans-66"/>
    </g>
   </g>
   <g id="text_47">
    <!-- cdef -->
    <g transform="translate(4220.596317 2238.86451)scale(0.1 -0.1)">
     <use xlink:href="#DejaVuSans-63"/>
     <use x="54.980469" xlink:href="#DejaVuSans-64"/>
     <use x="118.457031" xlink:href="#DejaVuSans-65"/>
     <use x="179.980469" xlink:href="#DejaVuSans-66"/>
    </g>
   </g>
   <g id="text_48">
    <!-- bce -->
    <g transform="translate(3168.950764 1768.197433)scale(0.1 -0.1)">
     <use xlink:href="#DejaVuSans-62"/>
     <use x="63.476562" xlink:href="#DejaVuSans-63"/>
     <use x="118.457031" xlink:href="#DejaVuSans-65"/>
    </g>
   </g>
   <g id="text_49">
    <!-- bcf -->
    <g transform="translate(2299.676239 3873.399036)scale(0.1 -0.1)">
     <use xlink:href="#DejaVuSans-62"/>
     <use x="63.476562" xlink:href="#DejaVuSans-63"/>
     <use x="118.457031" xlink:href="#DejaVuSans-66"/>
    </g>
   </g>
   <g id="text_50">
    <!-- abcde -->
    <g transform="translate(4194.451031 343.030361)scale(0.1 -0.1)">
     <use xlink:href="#DejaVuSans-61"/>
     <use x="61.279297" xlink:href="#DejaVuSans-62"/>
     <use x="124.755859" xlink:href="#DejaVuSans-63"/>
     <use x="179.736328" xlink:href="#DejaVuSans-64"/>
     <use x="243.212891" xlink:href="#DejaVuSans-65"/>
    </g>
   </g>
   <g id="text_51">
    <!-- adef -->
    <g transform="translate(1485.555409 1119.519209)scale(0.1 -0.1)">
     <use xlink:href="#DejaVuSans-61"/>
     <use x="61.279297" xlink:href="#DejaVuSans-64"/>
     <use x="124.755859" xlink:href="#DejaVuSans-65"/>
     <use x="186.279297" xlink:href="#DejaVuSans-66"/>
    </g>
   </g>
   <g id="text_52">
    <!-- acdef -->
    <g transform="translate(3905.538238 1082.971239)scale(0.1 -0.1)">
     <use xlink:href="#DejaVuSans-61"/>
     <use x="61.279297" xlink:href="#DejaVuSans-63"/>
     <use x="116.259766" xlink:href="#DejaVuSans-64"/>
     <use x="179.736328" xlink:href="#DejaVuSans-65"/>
     <use x="241.259766" xlink:href="#DejaVuSans-66"/>
    </g>
   </g>
  </g>
 </g>
 <defs>
  <clipPath id="p53410efd44">
   <rect height="4152.308652" width="7171.4" x="10.7" y="20.798437"/>
  </clipPath>
 </defs>
</svg>
